<svg version="1.1" xmlns="http://www.w3.org/2000/svg" x="0px" y="0px"
	 viewBox="2.3 8.3 45.4 62.4" enable-background="new 2.3 8.3 45.4 62.4" xml:space="preserve">
<g>
	<path stroke="#000000" stroke-width="4.252" stroke-miterlimit="10" d="M39.5,16.4c3.7,3.7,6,8.8,6,14.4c0,5.6-2.3,10.7-6,14.4
		c-3.7,3.7-8.8,6-14.4,6s-10.7-2.3-14.4-6c-3.7-3.7-6-8.8-6-14.4c0-5.6,2.3-10.7,6-14.4c3.7-3.7,8.8-6,14.4-6S35.8,12.7,39.5,16.4z
		 M36,41.8c2.9-2.9,4.5-6.8,4.5-10.9c0-4.1-1.6-8-4.5-10.9s-6.8-4.5-10.9-4.5s-8,1.6-10.9,4.5s-4.5,6.8-4.5,10.9
		c0,4.1,1.6,8,4.5,10.9s6.8,4.5,10.9,4.5S33,44.7,36,41.8z"/>
	<path stroke="#000000" stroke-width="4.252" stroke-miterlimit="10" d="M42.9,67.5c0,0.5-0.5,0.9-1,0.9L25,62.3L8.2,68.4
		c-0.6,0-1-0.4-1-0.9V56.7c0-0.5,0.5-0.9,1-0.9L25,62.3l16.8-6.6c0.6,0,1,0.4,1,0.9C42.9,56.7,42.9,67.5,42.9,67.5z"/>
</g>
</svg>
