<svg version="1.1" xmlns="http://www.w3.org/2000/svg" x="0px" y="0px"
	 width="166px" height="47.333px" viewBox="0 0 166 47.333" enable-background="new 0 0 166 47.333" xml:space="preserve">
<g>
	<path fill="#FFFFFF" stroke="#FFFFFF" stroke-width="1.4173" stroke-miterlimit="10" d="M17.644,6.053v2.679H3.349V6.053H17.644z
		 M9.157,12.566h2.679v13.224H9.157V12.566z"/>
	<path fill="#FFFFFF" stroke="#FFFFFF" stroke-width="1.4173" stroke-miterlimit="10" d="M36.166,14.596v11.194H33.46v-8.571H21.025
		V6.053h2.679v8.543H36.166z M21.025,20.489h2.679v5.301h-2.679V20.489z M36.166,6.053v5.301H33.46V6.053H36.166z"/>
	<path fill="#FFFFFF" stroke="#FFFFFF" stroke-width="1.4173" stroke-miterlimit="10" d="M53.477,8.731H40.535V6.053h12.942V8.731z
		 M52.602,17.218H40.535v-2.622h12.068V17.218z M53.646,23.083v2.707H40.535v-2.707H53.646z"/>
	<path fill="#FFFFFF" stroke="#FFFFFF" stroke-width="1.4173" stroke-miterlimit="10" d="M74.902,23.308
		c-4.088,0-6.823-3.299-6.823-7.359c0-4.088,2.735-7.359,6.823-7.359c2.509,0,4.511,1.241,5.668,3.13l2.481-1.212
		c-1.664-2.791-4.596-4.624-8.149-4.624c-5.554,0-9.586,4.483-9.586,10.066c0,5.554,4.032,10.037,9.586,10.037
		c3.553,0,6.485-1.833,8.149-4.596l-2.481-1.24C79.414,22.068,77.412,23.308,74.902,23.308z"/>
	<path fill="#FFFFFF" stroke="#FFFFFF" stroke-width="1.4173" stroke-miterlimit="10" d="M124.093,15.935
		c0,5.752-4.004,9.868-10.347,9.868h-5.837v-9.53h2.679v6.823h3.129c4.624,0,7.613-2.763,7.613-7.162c0-4.399-2.876-7.19-7.585-7.19
		h-5.837V6.067h5.837C120.145,6.067,124.093,10.183,124.093,15.935z"/>
	<path fill="#FFFFFF" stroke="#FFFFFF" stroke-width="1.4173" stroke-miterlimit="10" d="M140.557,8.731h-12.942V6.053h12.942V8.731
		z M139.683,17.218h-12.068v-2.622h12.068V17.218z M140.726,23.083v2.707h-13.111v-2.707H140.726z"/>
	<path fill="#FFFFFF" stroke="#FFFFFF" stroke-width="1.4173" stroke-miterlimit="10" d="M151.861,18.769h-4.652v7.021h-2.707V16.09
		h7.387c2.368,0,3.694-1.748,3.694-3.665c0-1.946-1.326-3.694-3.694-3.694h-7.387V6.053h7.387c4.004,0,6.457,2.848,6.457,6.372
		c0,2.594-1.354,4.821-3.694,5.808l4.258,7.556h-3.073L151.861,18.769z"/>
	<path fill="#FFFFFF" stroke="#FFFFFF" stroke-width="1.7008" stroke-miterlimit="10" d="M100.431,8.19
		c1.321,1.321,2.138,3.145,2.138,5.161c0,2.015-0.817,3.84-2.138,5.161c-1.321,1.32-3.145,2.137-5.161,2.137
		s-3.84-0.817-5.161-2.137c-1.321-1.321-2.138-3.145-2.138-5.161c0-2.016,0.817-3.84,2.138-5.161
		c1.321-1.32,3.145-2.137,5.161-2.137S99.11,6.869,100.431,8.19z M99.175,17.256c1.043-1.043,1.618-2.43,1.618-3.905
		c0-1.476-0.575-2.862-1.618-3.906c-1.043-1.043-2.43-1.618-3.905-1.618s-2.862,0.575-3.905,1.618
		c-1.043,1.043-1.618,2.43-1.618,3.906c0,1.475,0.574,2.862,1.618,3.905c1.043,1.043,2.43,1.618,3.905,1.618
		S98.132,18.299,99.175,17.256z"/>
	<path fill="#FFFFFF" stroke="#FFFFFF" stroke-width="1.4173" stroke-miterlimit="10" d="M102.062,26.438
		c0,0.187-0.163,0.338-0.365,0.338l-6.01-2.175l-6.01,2.175c-0.201,0-0.365-0.151-0.365-0.338v-3.845
		c0-0.187,0.163-0.338,0.365-0.338l6.01,2.345l6.01-2.345c0.201,0,0.365,0.151,0.365,0.338V26.438z"/>
</g>
<g>
	<path fill="#FFFFFF" d="M4.482,37.045h0.621l1.437,3.405l1.496-3.405h0.109l1.506,3.405l1.465-3.405h0.627l-2.037,4.689H9.595
		l-1.499-3.357l-1.499,3.357H6.485L4.482,37.045z"/>
	<path fill="#FFFFFF" d="M17.899,40.178l0.509,0.267c-0.167,0.328-0.36,0.592-0.578,0.793c-0.219,0.201-0.464,0.354-0.738,0.459
		c-0.273,0.104-0.582,0.157-0.927,0.157c-0.765,0-1.363-0.25-1.795-0.752c-0.431-0.501-0.647-1.068-0.647-1.7
		c0-0.595,0.182-1.125,0.548-1.59c0.463-0.592,1.083-0.888,1.859-0.888c0.799,0,1.437,0.303,1.915,0.909
		c0.339,0.428,0.512,0.962,0.518,1.603h-4.219c0.011,0.544,0.185,0.991,0.522,1.339s0.752,0.522,1.247,0.522
		c0.238,0,0.471-0.042,0.697-0.124c0.226-0.083,0.418-0.193,0.576-0.33C17.543,40.706,17.715,40.484,17.899,40.178z M17.899,38.915
		c-0.08-0.322-0.198-0.579-0.351-0.771c-0.154-0.192-0.358-0.348-0.611-0.465c-0.253-0.118-0.519-0.177-0.798-0.177
		c-0.461,0-0.856,0.148-1.187,0.444c-0.241,0.215-0.424,0.539-0.548,0.97H17.899z"/>
	<path fill="#FFFFFF" d="M21.227,41.734v-6.499h0.603v2.616c0.252-0.31,0.535-0.542,0.848-0.696
		c0.313-0.154,0.656-0.231,1.029-0.231c0.663,0,1.229,0.241,1.698,0.722s0.704,1.065,0.704,1.752c0,0.678-0.237,1.257-0.711,1.737
		c-0.474,0.48-1.043,0.72-1.709,0.72c-0.382,0-0.727-0.082-1.038-0.246c-0.31-0.164-0.584-0.409-0.822-0.737v0.862H21.227z
		 M23.64,41.272c0.335,0,0.645-0.082,0.928-0.248c0.284-0.165,0.509-0.397,0.678-0.696c0.168-0.299,0.251-0.615,0.251-0.948
		s-0.085-0.651-0.254-0.952c-0.169-0.302-0.396-0.537-0.681-0.704c-0.285-0.169-0.59-0.252-0.914-0.252
		c-0.33,0-0.643,0.084-0.939,0.252c-0.297,0.168-0.524,0.394-0.684,0.679c-0.159,0.284-0.238,0.605-0.238,0.961
		c0,0.543,0.179,0.997,0.535,1.362C22.679,41.09,23.118,41.272,23.64,41.272z"/>
	<path fill="#FFFFFF" d="M37.333,35.235v6.499h-0.595v-0.806c-0.253,0.307-0.536,0.539-0.851,0.694
		c-0.314,0.155-0.658,0.233-1.032,0.233c-0.664,0-1.23-0.24-1.7-0.722c-0.469-0.481-0.704-1.066-0.704-1.756
		c0-0.675,0.237-1.253,0.711-1.732c0.474-0.48,1.044-0.72,1.711-0.72c0.385,0,0.733,0.082,1.045,0.246
		c0.311,0.164,0.585,0.409,0.821,0.737v-2.672H37.333z M34.921,37.506c-0.336,0-0.645,0.082-0.929,0.248
		c-0.284,0.165-0.51,0.397-0.678,0.695c-0.168,0.298-0.252,0.614-0.252,0.947c0,0.33,0.085,0.645,0.254,0.947
		c0.17,0.302,0.397,0.536,0.682,0.704s0.592,0.252,0.919,0.252c0.33,0,0.643-0.083,0.938-0.249c0.295-0.167,0.523-0.392,0.682-0.676
		c0.159-0.284,0.239-0.604,0.239-0.96c0-0.543-0.179-0.996-0.536-1.36C35.884,37.688,35.444,37.506,34.921,37.506z"/>
	<path fill="#FFFFFF" d="M44.147,40.178l0.509,0.267c-0.167,0.328-0.36,0.592-0.578,0.793c-0.219,0.201-0.464,0.354-0.738,0.459
		c-0.273,0.104-0.582,0.157-0.927,0.157c-0.765,0-1.363-0.25-1.795-0.752c-0.431-0.501-0.647-1.068-0.647-1.7
		c0-0.595,0.182-1.125,0.548-1.59c0.463-0.592,1.083-0.888,1.859-0.888c0.799,0,1.437,0.303,1.915,0.909
		c0.339,0.428,0.512,0.962,0.518,1.603h-4.219c0.011,0.544,0.185,0.991,0.522,1.339s0.752,0.522,1.247,0.522
		c0.238,0,0.471-0.042,0.697-0.124c0.226-0.083,0.418-0.193,0.576-0.33C43.791,40.706,43.963,40.484,44.147,40.178z M44.147,38.915
		c-0.08-0.322-0.198-0.579-0.351-0.771c-0.154-0.192-0.358-0.348-0.611-0.465c-0.253-0.118-0.519-0.177-0.798-0.177
		c-0.461,0-0.856,0.148-1.187,0.444c-0.241,0.215-0.424,0.539-0.548,0.97H44.147z"/>
	<path fill="#FFFFFF" d="M46.992,37.045h0.642l1.574,3.418l1.555-3.418h0.646l-2.146,4.689h-0.112L46.992,37.045z"/>
	<path fill="#FFFFFF" d="M57.775,40.178l0.509,0.267c-0.167,0.328-0.36,0.592-0.578,0.793c-0.219,0.201-0.464,0.354-0.738,0.459
		c-0.273,0.104-0.582,0.157-0.927,0.157c-0.765,0-1.363-0.25-1.795-0.752c-0.431-0.501-0.647-1.068-0.647-1.7
		c0-0.595,0.182-1.125,0.548-1.59c0.463-0.592,1.083-0.888,1.859-0.888c0.799,0,1.437,0.303,1.915,0.909
		c0.339,0.428,0.512,0.962,0.518,1.603H54.22c0.011,0.544,0.185,0.991,0.522,1.339c0.337,0.348,0.752,0.522,1.247,0.522
		c0.238,0,0.471-0.042,0.697-0.124c0.226-0.083,0.418-0.193,0.576-0.33C57.42,40.706,57.591,40.484,57.775,40.178z M57.775,38.915
		c-0.08-0.322-0.198-0.579-0.351-0.771c-0.154-0.192-0.358-0.348-0.611-0.465c-0.253-0.118-0.519-0.177-0.798-0.177
		c-0.461,0-0.856,0.148-1.187,0.444c-0.241,0.215-0.424,0.539-0.548,0.97H57.775z"/>
	<path fill="#FFFFFF" d="M60.974,35.235h0.603v6.499h-0.603V35.235z"/>
	<path fill="#FFFFFF" d="M66.551,36.924c0.723,0,1.321,0.261,1.796,0.784c0.431,0.477,0.647,1.041,0.647,1.694
		c0,0.655-0.228,1.228-0.684,1.718c-0.456,0.49-1.042,0.735-1.759,0.735c-0.72,0-1.307-0.245-1.764-0.735s-0.684-1.063-0.684-1.718
		c0-0.649,0.216-1.212,0.647-1.689C65.225,37.187,65.825,36.924,66.551,36.924z M66.548,37.514c-0.501,0-0.932,0.185-1.293,0.556
		c-0.361,0.371-0.541,0.819-0.541,1.345c0,0.339,0.082,0.655,0.247,0.948c0.164,0.293,0.386,0.519,0.666,0.679
		c0.28,0.159,0.587,0.239,0.921,0.239c0.335,0,0.642-0.08,0.921-0.239c0.28-0.16,0.502-0.386,0.666-0.679
		c0.164-0.293,0.247-0.609,0.247-0.948c0-0.526-0.181-0.974-0.543-1.345C67.478,37.7,67.047,37.514,66.548,37.514z"/>
	<path fill="#FFFFFF" d="M71.619,37.045h0.603v0.862c0.238-0.328,0.512-0.573,0.822-0.737c0.31-0.164,0.656-0.246,1.038-0.246
		c0.666,0,1.235,0.24,1.709,0.72c0.474,0.48,0.711,1.057,0.711,1.732c0,0.69-0.235,1.275-0.704,1.756
		c-0.469,0.482-1.035,0.722-1.698,0.722c-0.373,0-0.716-0.078-1.029-0.233c-0.313-0.155-0.596-0.386-0.848-0.694v2.521h-0.603
		V37.045z M74.033,37.506c-0.522,0-0.961,0.182-1.318,0.547c-0.357,0.364-0.535,0.818-0.535,1.36c0,0.356,0.079,0.676,0.238,0.96
		c0.159,0.284,0.387,0.509,0.684,0.676c0.297,0.166,0.61,0.249,0.939,0.249c0.324,0,0.628-0.084,0.914-0.252
		c0.285-0.168,0.512-0.402,0.681-0.704c0.169-0.301,0.254-0.617,0.254-0.947c0-0.333-0.084-0.649-0.251-0.947
		c-0.168-0.298-0.394-0.53-0.677-0.695C74.678,37.588,74.368,37.506,74.033,37.506z"/>
	<path fill="#FFFFFF" d="M79.127,37.045h0.603v0.81c0.21-0.299,0.426-0.517,0.647-0.655c0.305-0.184,0.625-0.276,0.962-0.276
		c0.227,0,0.443,0.045,0.647,0.134c0.204,0.089,0.371,0.208,0.501,0.356c0.129,0.148,0.241,0.36,0.336,0.635
		c0.201-0.368,0.452-0.647,0.753-0.838c0.301-0.191,0.625-0.286,0.972-0.286c0.324,0,0.61,0.082,0.858,0.246
		c0.248,0.164,0.432,0.392,0.553,0.685c0.12,0.293,0.181,0.733,0.181,1.319v2.56h-0.616v-2.56c0-0.503-0.036-0.848-0.107-1.036
		c-0.072-0.188-0.194-0.34-0.367-0.455s-0.38-0.172-0.621-0.172c-0.292,0-0.559,0.086-0.801,0.259
		c-0.242,0.172-0.419,0.402-0.531,0.69c-0.112,0.287-0.168,0.767-0.168,1.439v1.836h-0.603v-2.4c0-0.566-0.035-0.95-0.106-1.153
		c-0.07-0.203-0.193-0.365-0.368-0.487c-0.175-0.122-0.384-0.183-0.625-0.183c-0.279,0-0.54,0.084-0.782,0.252
		c-0.243,0.169-0.422,0.395-0.538,0.679c-0.117,0.284-0.175,0.72-0.175,1.306v1.987h-0.603V37.045z"/>
	<path fill="#FFFFFF" d="M92.858,40.178l0.509,0.267c-0.167,0.328-0.36,0.592-0.578,0.793c-0.219,0.201-0.464,0.354-0.738,0.459
		c-0.273,0.104-0.582,0.157-0.927,0.157c-0.765,0-1.363-0.25-1.795-0.752c-0.431-0.501-0.647-1.068-0.647-1.7
		c0-0.595,0.182-1.125,0.548-1.59c0.463-0.592,1.083-0.888,1.859-0.888c0.799,0,1.437,0.303,1.915,0.909
		c0.339,0.428,0.512,0.962,0.518,1.603h-4.219c0.011,0.544,0.185,0.991,0.522,1.339s0.752,0.522,1.247,0.522
		c0.238,0,0.471-0.042,0.697-0.124c0.226-0.083,0.418-0.193,0.576-0.33C92.503,40.706,92.674,40.484,92.858,40.178z M92.858,38.915
		c-0.08-0.322-0.198-0.579-0.351-0.771c-0.154-0.192-0.358-0.348-0.611-0.465c-0.253-0.118-0.519-0.177-0.798-0.177
		c-0.461,0-0.856,0.148-1.187,0.444c-0.241,0.215-0.424,0.539-0.548,0.97H92.858z"/>
	<path fill="#FFFFFF" d="M96.147,37.045h0.603v0.84c0.241-0.322,0.509-0.563,0.802-0.722c0.293-0.16,0.612-0.239,0.957-0.239
		c0.351,0,0.662,0.089,0.933,0.267c0.272,0.178,0.472,0.418,0.601,0.72c0.129,0.302,0.194,0.771,0.194,1.409v2.413h-0.603v-2.237
		c0-0.54-0.022-0.901-0.067-1.082c-0.07-0.31-0.204-0.543-0.402-0.7c-0.198-0.157-0.457-0.235-0.776-0.235
		c-0.365,0-0.692,0.121-0.981,0.362c-0.289,0.241-0.479,0.54-0.571,0.896c-0.057,0.233-0.086,0.658-0.086,1.276v1.72h-0.603V37.045z
		"/>
	<path fill="#FFFFFF" d="M103.556,35.304h0.603v1.741h0.957v0.521h-0.957v4.167h-0.603v-4.167h-0.823v-0.521h0.823V35.304z"/>
	<path fill="#FFFFFF" d="M116.016,38.019l-0.478,0.297c-0.413-0.549-0.977-0.823-1.692-0.823c-0.571,0-1.045,0.184-1.423,0.551
		c-0.377,0.367-0.566,0.814-0.566,1.338c0,0.342,0.087,0.663,0.26,0.964c0.173,0.302,0.412,0.535,0.714,0.702
		c0.303,0.166,0.642,0.249,1.018,0.249c0.689,0,1.251-0.274,1.687-0.823l0.478,0.315c-0.224,0.338-0.525,0.6-0.903,0.785
		c-0.378,0.186-0.808,0.279-1.29,0.279c-0.741,0-1.356-0.236-1.844-0.707c-0.488-0.471-0.733-1.044-0.733-1.72
		c0-0.454,0.114-0.875,0.342-1.265c0.229-0.389,0.543-0.693,0.942-0.912c0.399-0.218,0.846-0.328,1.34-0.328
		c0.31,0,0.61,0.047,0.898,0.142c0.289,0.095,0.534,0.218,0.735,0.371C115.705,37.589,115.876,37.783,116.016,38.019z"/>
	<path fill="#FFFFFF" d="M120.895,36.924c0.723,0,1.321,0.261,1.796,0.784c0.431,0.477,0.647,1.041,0.647,1.694
		c0,0.655-0.228,1.228-0.684,1.718c-0.456,0.49-1.042,0.735-1.759,0.735c-0.72,0-1.307-0.245-1.764-0.735
		c-0.456-0.49-0.684-1.063-0.684-1.718c0-0.649,0.216-1.212,0.647-1.689C119.57,37.187,120.17,36.924,120.895,36.924z
		 M120.893,37.514c-0.501,0-0.932,0.185-1.293,0.556c-0.361,0.371-0.541,0.819-0.541,1.345c0,0.339,0.082,0.655,0.247,0.948
		c0.164,0.293,0.386,0.519,0.666,0.679c0.28,0.159,0.587,0.239,0.921,0.239c0.335,0,0.642-0.08,0.921-0.239
		c0.28-0.16,0.502-0.386,0.666-0.679c0.164-0.293,0.247-0.609,0.247-0.948c0-0.526-0.181-0.974-0.543-1.345
		C121.822,37.7,121.392,37.514,120.893,37.514z"/>
	<path fill="#FFFFFF" d="M125.951,37.045h0.603v0.81c0.21-0.299,0.426-0.517,0.647-0.655c0.305-0.184,0.625-0.276,0.962-0.276
		c0.227,0,0.443,0.045,0.647,0.134c0.204,0.089,0.371,0.208,0.501,0.356c0.129,0.148,0.241,0.36,0.336,0.635
		c0.201-0.368,0.452-0.647,0.753-0.838c0.301-0.191,0.625-0.286,0.972-0.286c0.324,0,0.61,0.082,0.858,0.246
		c0.248,0.164,0.432,0.392,0.553,0.685c0.12,0.293,0.181,0.733,0.181,1.319v2.56h-0.616v-2.56c0-0.503-0.036-0.848-0.107-1.036
		c-0.072-0.188-0.194-0.34-0.367-0.455s-0.38-0.172-0.621-0.172c-0.292,0-0.559,0.086-0.801,0.259
		c-0.242,0.172-0.419,0.402-0.531,0.69c-0.112,0.287-0.168,0.767-0.168,1.439v1.836h-0.603v-2.4c0-0.566-0.035-0.95-0.106-1.153
		c-0.07-0.203-0.193-0.365-0.368-0.487c-0.175-0.122-0.384-0.183-0.625-0.183c-0.279,0-0.54,0.084-0.782,0.252
		c-0.243,0.169-0.422,0.395-0.538,0.679c-0.117,0.284-0.175,0.72-0.175,1.306v1.987h-0.603V37.045z"/>
	<path fill="#FFFFFF" d="M135.743,37.045h0.603v0.862c0.238-0.328,0.512-0.573,0.822-0.737c0.31-0.164,0.656-0.246,1.038-0.246
		c0.666,0,1.235,0.24,1.709,0.72c0.474,0.48,0.711,1.057,0.711,1.732c0,0.69-0.235,1.275-0.704,1.756
		c-0.469,0.482-1.035,0.722-1.698,0.722c-0.373,0-0.716-0.078-1.029-0.233c-0.313-0.155-0.596-0.386-0.848-0.694v2.521h-0.603
		V37.045z M138.156,37.506c-0.522,0-0.961,0.182-1.318,0.547c-0.357,0.364-0.535,0.818-0.535,1.36c0,0.356,0.079,0.676,0.238,0.96
		c0.159,0.284,0.387,0.509,0.684,0.676c0.297,0.166,0.61,0.249,0.939,0.249c0.324,0,0.628-0.084,0.914-0.252
		c0.285-0.168,0.512-0.402,0.681-0.704c0.169-0.301,0.254-0.617,0.254-0.947c0-0.333-0.084-0.649-0.251-0.947
		c-0.168-0.298-0.394-0.53-0.677-0.695C138.801,37.588,138.492,37.506,138.156,37.506z"/>
	<path fill="#FFFFFF" d="M147.927,37.045v4.689h-0.595v-0.806c-0.253,0.307-0.536,0.539-0.851,0.694
		c-0.314,0.155-0.658,0.233-1.032,0.233c-0.664,0-1.23-0.24-1.7-0.722c-0.469-0.481-0.704-1.066-0.704-1.756
		c0-0.675,0.237-1.253,0.711-1.732c0.474-0.48,1.044-0.72,1.711-0.72c0.385,0,0.733,0.082,1.045,0.246
		c0.311,0.164,0.585,0.409,0.821,0.737v-0.862H147.927z M145.516,37.506c-0.336,0-0.645,0.082-0.929,0.248
		c-0.284,0.165-0.51,0.397-0.678,0.695c-0.168,0.298-0.252,0.614-0.252,0.947c0,0.33,0.085,0.645,0.254,0.947
		c0.17,0.302,0.397,0.536,0.682,0.704s0.592,0.252,0.919,0.252c0.33,0,0.643-0.083,0.938-0.249c0.295-0.167,0.523-0.392,0.682-0.676
		c0.159-0.284,0.239-0.604,0.239-0.96c0-0.543-0.179-0.996-0.536-1.36C146.478,37.688,146.038,37.506,145.516,37.506z"/>
	<path fill="#FFFFFF" d="M150.785,37.045h0.603v0.84c0.241-0.322,0.509-0.563,0.802-0.722c0.293-0.16,0.612-0.239,0.957-0.239
		c0.351,0,0.662,0.089,0.933,0.267c0.272,0.178,0.472,0.418,0.601,0.72c0.129,0.302,0.194,0.771,0.194,1.409v2.413h-0.603v-2.237
		c0-0.54-0.023-0.901-0.067-1.082c-0.07-0.31-0.204-0.543-0.402-0.7c-0.198-0.157-0.457-0.235-0.776-0.235
		c-0.365,0-0.692,0.121-0.981,0.362c-0.289,0.241-0.479,0.54-0.571,0.896c-0.057,0.233-0.086,0.658-0.086,1.276v1.72h-0.603V37.045z
		"/>
	<path fill="#FFFFFF" d="M157.164,37.045h0.638l1.611,3.61l1.565-3.61h0.642l-2.797,6.404h-0.637l0.903-2.071L157.164,37.045z"/>
</g>
</svg>
