<svg version="1.1" xmlns="http://www.w3.org/2000/svg" x="0px" y="0px"
	 viewBox="0 0 1170 5000" enable-background="new 0 0 1170 5000" xml:space="preserve">
<g>
	<path stroke="#FFFFFF" stroke-width="4.252" stroke-miterlimit="10" d="M962.1,1920.6c94.7,94.7,153.6,225.3,153.6,368.7
		c0,143.4-58.9,273.9-153.6,368.7c-94.7,94.7-225.3,153.6-368.7,153.6s-273.9-58.9-368.7-153.6c-94.7-94.7-153.6-225.3-153.6-368.7
		s58.9-273.9,153.6-368.7S450,1767,593.4,1767S867.3,1825.9,962.1,1920.6z M872.5,2570.9c74.2-74.2,115.2-174.1,115.2-279.1
		c0-105-41-204.8-115.2-279.1s-174.1-115.2-279.1-115.2s-204.8,41-279.1,115.2s-115.2,174.1-115.2,279.1c0,105,41,204.8,115.2,279.1
		c74.2,74.2,174.1,115.2,279.1,115.2S795.7,2645.2,872.5,2570.9z"/>
	<path stroke="#FFFFFF" stroke-width="4.252" stroke-miterlimit="10" d="M1049.1,3228.9c0,12.8-12.8,23-25.6,23l-432.7-156.2
		l-430.1,156.2c-15.4,0-25.6-10.2-25.6-23v-276.5c0-12.8,12.8-23,25.6-23l430.1,166.4l430.1-169c15.4,0,25.6,10.2,25.6,23
		C1049.1,2952.4,1049.1,3228.9,1049.1,3228.9z"/>
</g>
</svg>
