<?xml version="1.0" encoding="utf-8"?>
<!-- Generator: Adobe Illustrator 18.0.0, SVG Export Plug-In . SVG Version: 6.00 Build 0)  -->
<!DOCTYPE svg PUBLIC "-//W3C//DTD SVG 1.1//EN" "http://www.w3.org/Graphics/SVG/1.1/DTD/svg11.dtd">
<svg version="1.1" id="Слой_1" xmlns="http://www.w3.org/2000/svg" xmlns:xlink="http://www.w3.org/1999/xlink" x="0px" y="0px"
	 viewBox="0 0 174 56" enable-background="new 0 0 174 56" xml:space="preserve">
<metadata><?xpacket begin="﻿" id="W5M0MpCehiHzreSzNTczkc9d"?>
<x:xmpmeta xmlns:x="adobe:ns:meta/" x:xmptk="Adobe XMP Core 5.6-c011 79.156289, 2014/03/31-23:39:12        ">
   <rdf:RDF xmlns:rdf="http://www.w3.org/1999/02/22-rdf-syntax-ns#">
      <rdf:Description rdf:about=""
            xmlns:xmpMM="http://ns.adobe.com/xap/1.0/mm/"
            xmlns:stRef="http://ns.adobe.com/xap/1.0/sType/ResourceRef#"
            xmlns:stEvt="http://ns.adobe.com/xap/1.0/sType/ResourceEvent#"
            xmlns:xmp="http://ns.adobe.com/xap/1.0/"
            xmlns:xmpGImg="http://ns.adobe.com/xap/1.0/g/img/"
            xmlns:pdf="http://ns.adobe.com/pdf/1.3/"
            xmlns:dc="http://purl.org/dc/elements/1.1/"
            xmlns:xmpTPg="http://ns.adobe.com/xap/1.0/t/pg/"
            xmlns:stDim="http://ns.adobe.com/xap/1.0/sType/Dimensions#"
            xmlns:xmpG="http://ns.adobe.com/xap/1.0/g/">
         <xmpMM:RenditionClass>proof:pdf</xmpMM:RenditionClass>
         <xmpMM:DocumentID>xmp.did:d300ac18-34a6-8043-a249-39dfc6327e67</xmpMM:DocumentID>
         <xmpMM:InstanceID>xmp.iid:d300ac18-34a6-8043-a249-39dfc6327e67</xmpMM:InstanceID>
         <xmpMM:OriginalDocumentID>uuid:89718b57-350f-4b78-897b-212a34691fe4</xmpMM:OriginalDocumentID>
         <xmpMM:DerivedFrom rdf:parseType="Resource">
            <stRef:instanceID>xmp.iid:c2355ac5-a045-8049-a67d-bd6b7836b4f6</stRef:instanceID>
            <stRef:documentID>xmp.did:c2355ac5-a045-8049-a67d-bd6b7836b4f6</stRef:documentID>
            <stRef:originalDocumentID>uuid:89718b57-350f-4b78-897b-212a34691fe4</stRef:originalDocumentID>
            <stRef:renditionClass>proof:pdf</stRef:renditionClass>
         </xmpMM:DerivedFrom>
         <xmpMM:History>
            <rdf:Seq>
               <rdf:li rdf:parseType="Resource">
                  <stEvt:action>saved</stEvt:action>
                  <stEvt:instanceID>xmp.iid:c2355ac5-a045-8049-a67d-bd6b7836b4f6</stEvt:instanceID>
                  <stEvt:when>2018-08-02T15:43:46+03:00</stEvt:when>
                  <stEvt:softwareAgent>Adobe Illustrator CC (Windows)</stEvt:softwareAgent>
                  <stEvt:changed>/</stEvt:changed>
               </rdf:li>
               <rdf:li rdf:parseType="Resource">
                  <stEvt:action>saved</stEvt:action>
                  <stEvt:instanceID>xmp.iid:d300ac18-34a6-8043-a249-39dfc6327e67</stEvt:instanceID>
                  <stEvt:when>2018-08-22T17:00:15+03:00</stEvt:when>
                  <stEvt:softwareAgent>Adobe Illustrator CC 2014 (Windows)</stEvt:softwareAgent>
                  <stEvt:changed>/</stEvt:changed>
               </rdf:li>
            </rdf:Seq>
         </xmpMM:History>
         <xmp:CreateDate>2018-08-22T17:00:14+03:00</xmp:CreateDate>
         <xmp:CreatorTool>Adobe Illustrator CC 2014 (Windows)</xmp:CreatorTool>
         <xmp:ModifyDate>2018-08-22T17:00:15+03:00</xmp:ModifyDate>
         <xmp:MetadataDate>2018-08-22T17:00:15+03:00</xmp:MetadataDate>
         <xmp:Thumbnails>
            <rdf:Alt>
               <rdf:li rdf:parseType="Resource">
                  <xmpGImg:width>256</xmpGImg:width>
                  <xmpGImg:height>64</xmpGImg:height>
                  <xmpGImg:format>JPEG</xmpGImg:format>
                  <xmpGImg:image>/9j/4AAQSkZJRgABAgEASABIAAD/7QAsUGhvdG9zaG9wIDMuMAA4QklNA+0AAAAAABAASAAAAAEA&#xA;AQBIAAAAAQAB/+4ADkFkb2JlAGTAAAAAAf/bAIQABgQEBAUEBgUFBgkGBQYJCwgGBggLDAoKCwoK&#xA;DBAMDAwMDAwQDA4PEA8ODBMTFBQTExwbGxscHx8fHx8fHx8fHwEHBwcNDA0YEBAYGhURFRofHx8f&#xA;Hx8fHx8fHx8fHx8fHx8fHx8fHx8fHx8fHx8fHx8fHx8fHx8fHx8fHx8fHx8f/8AAEQgAQAEAAwER&#xA;AAIRAQMRAf/EAaIAAAAHAQEBAQEAAAAAAAAAAAQFAwIGAQAHCAkKCwEAAgIDAQEBAQEAAAAAAAAA&#xA;AQACAwQFBgcICQoLEAACAQMDAgQCBgcDBAIGAnMBAgMRBAAFIRIxQVEGE2EicYEUMpGhBxWxQiPB&#xA;UtHhMxZi8CRygvElQzRTkqKyY3PCNUQnk6OzNhdUZHTD0uIIJoMJChgZhJRFRqS0VtNVKBry4/PE&#xA;1OT0ZXWFlaW1xdXl9WZ2hpamtsbW5vY3R1dnd4eXp7fH1+f3OEhYaHiImKi4yNjo+Ck5SVlpeYmZ&#xA;qbnJ2en5KjpKWmp6ipqqusra6voRAAICAQIDBQUEBQYECAMDbQEAAhEDBCESMUEFURNhIgZxgZEy&#xA;obHwFMHR4SNCFVJicvEzJDRDghaSUyWiY7LCB3PSNeJEgxdUkwgJChgZJjZFGidkdFU38qOzwygp&#xA;0+PzhJSktMTU5PRldYWVpbXF1eX1RlZmdoaWprbG1ub2R1dnd4eXp7fH1+f3OEhYaHiImKi4yNjo&#xA;+DlJWWl5iZmpucnZ6fkqOkpaanqKmqq6ytrq+v/aAAwDAQACEQMRAD8A9U4q7FXYq7FXYq7FXYq7&#xA;FXYq7FXYq7FXYq7FXYq7FXYq7FXYq7FXYq7FXYq7FXYq7FXYq7FXYq7FXYq7FXYq7FXYq7FXYq7F&#xA;XYq7FXYq7FXYq7FXYq7FXYq7FXYq7FXYq7FXYq7FXYq7FXYq7FXYq7FXYq7FXYq7FXYq7FXYq7FX&#xA;Yq7FXYq7FXYq7FXYq7FXYq7FXYq7FXYq7FXYq7FXYq7FXYq7FXYq7FXYq7FXYq7FXYq7FXYq7FXY&#xA;q7FXYq7FXYq7FXYq7FXYq7FXYq7FXYq7FXYq7FXYq7FXYq7FXYq7FXYq7FXYq7FXYq7FXYq7FXYq&#xA;7FXYq7FXYq7FXYq7FXYq7FXYq7FXYq7FXYq7FXYq7FXYq7FXYq7FXYq7FXYq7FXYq7FXYq7FXYq7&#xA;FXYq7FXYq7FXYq7FXYq7FXYq7FXYq7FXYq7FXYq7FXYq7FXYq7FXYq7FXYq7FXYq7FXYq7FXYq7F&#xA;XYq7FXYq7FXYq7FXYq7FXYq7FXYq7FXYq7FXYq7FXYq7FXYq7FXYq7FXYq7FXYq7FXYq7FXYq7FX&#xA;Yq7FXYq7FXYq7FXYq7FXYq7FXYq7FXYq7FXYq7FXYq7FXYq7FXYq7FXYq7FXYq7FXYq7FXYq7FXY&#xA;q7FXYq7FXYq7FX//2Q==</xmpGImg:image>
               </rdf:li>
            </rdf:Alt>
         </xmp:Thumbnails>
         <pdf:Producer>Adobe PDF library 10.01</pdf:Producer>
         <dc:format>image/svg+xml</dc:format>
         <xmpTPg:MaxPageSize rdf:parseType="Resource">
            <stDim:w>174.000000</stDim:w>
            <stDim:h>56.000000</stDim:h>
            <stDim:unit>Pixels</stDim:unit>
         </xmpTPg:MaxPageSize>
         <xmpTPg:NPages>1</xmpTPg:NPages>
         <xmpTPg:HasVisibleTransparency>False</xmpTPg:HasVisibleTransparency>
         <xmpTPg:HasVisibleOverprint>False</xmpTPg:HasVisibleOverprint>
         <xmpTPg:SwatchGroups>
            <rdf:Seq>
               <rdf:li rdf:parseType="Resource">
                  <xmpG:groupName>Default Swatch Group</xmpG:groupName>
                  <xmpG:groupType>0</xmpG:groupType>
               </rdf:li>
            </rdf:Seq>
         </xmpTPg:SwatchGroups>
      </rdf:Description>
   </rdf:RDF>
</x:xmpmeta>
                                                                                                    
                                                                                                    
                                                                                                    
                                                                                                    
                                                                                                    
                                                                                                    
                                                                                                    
                                                                                                    
                                                                                                    
                                                                                                    
                                                                                                    
                                                                                                    
                                                                                                    
                                                                                                    
                                                                                                    
                                                                                                    
                                                                                                    
                                                                                                    
                                                                                                    
                                                                                                    
                           
<?xpacket end="w"?>
	</metadata>
<g>
	<path fill="#FFFFFF" stroke="#FFFFFF" stroke-miterlimit="10" d="M15.8,40.4l-3,7h-0.7l1-2.2L11,40.4h0.7l1.8,3.9l1.7-3.9H15.8z"/>
	<path fill="#FFFFFF" stroke="#FFFFFF" stroke-miterlimit="10" d="M23.6,42.9c0,0.8-0.3,1.4-0.8,1.9c-0.5,0.5-1.1,0.8-1.9,0.8
		s-1.4-0.3-1.9-0.8c-0.5-0.5-0.8-1.1-0.8-1.9c0-0.7,0.2-1.3,0.7-1.8c0.5-0.6,1.2-0.9,2-0.9c0.8,0,1.4,0.3,1.9,0.9
		C23.4,41.6,23.6,42.2,23.6,42.9z M23,42.9c0-0.6-0.2-1-0.6-1.5c-0.4-0.4-0.9-0.6-1.4-0.6s-1,0.2-1.4,0.6c-0.4,0.4-0.6,0.9-0.6,1.5
		c0,0.4,0.1,0.7,0.3,1c0.2,0.3,0.4,0.6,0.7,0.7s0.6,0.3,1,0.3c0.8,0,1.3-0.3,1.7-1C22.9,43.6,23,43.3,23,42.9z"/>
	<path fill="#FFFFFF" stroke="#FFFFFF" stroke-miterlimit="10" d="M31.2,42.9c0,0.6-0.1,1-0.2,1.4c-0.1,0.5-0.4,0.8-0.8,1.1
		c-0.3,0.2-0.7,0.3-1.2,0.3c-1,0-1.6-0.4-2-1.1c-0.2-0.4-0.2-0.9-0.2-1.6v-2.5h0.7v2.4c0,0.6,0,1,0.1,1.2c0.1,0.3,0.3,0.6,0.6,0.8
		c0.3,0.2,0.6,0.3,0.9,0.3c0.3,0,0.6-0.1,0.9-0.2c0.3-0.2,0.5-0.4,0.6-0.7c0.1-0.2,0.1-0.6,0.1-1.3v-2.4h0.7
		C31.2,40.4,31.2,42.9,31.2,42.9z"/>
	<path fill="#FFFFFF" stroke="#FFFFFF" stroke-miterlimit="10" d="M36.9,40.4L36.5,41c-0.1-0.1-0.3-0.1-0.3-0.1
		c-0.5,0-0.9,0.4-1.1,1.1C35,42.3,35,42.8,35,43.7v1.7h-0.7v-5.1H35v0.7c0.4-0.6,0.8-0.9,1.3-0.9C36.5,40.2,36.7,40.3,36.9,40.4z"/>
	<path fill="#FFFFFF" stroke="#FFFFFF" stroke-miterlimit="10" d="M49.8,42.9c0,0.7-0.2,1.4-0.7,1.9c-0.5,0.5-1.1,0.8-1.9,0.8
		c-0.8,0-1.5-0.3-2-1v2.7h-0.7v-7h0.7v0.9c0.5-0.7,1.2-1.1,2-1.1c0.7,0,1.4,0.3,1.9,0.8C49.5,41.5,49.8,42.2,49.8,42.9z M49.1,42.9
		c0-0.4-0.1-0.7-0.3-1c-0.2-0.3-0.4-0.6-0.7-0.8c-0.3-0.2-0.6-0.3-1-0.3c-0.6,0-1.1,0.2-1.4,0.6c-0.4,0.4-0.6,0.9-0.6,1.5
		c0,0.8,0.3,1.4,1,1.8c0.3,0.2,0.7,0.3,1,0.3c0.4,0,0.7-0.1,1-0.3c0.3-0.2,0.5-0.4,0.7-0.8C49,43.6,49.1,43.3,49.1,42.9z"/>
	<path fill="#FFFFFF" stroke="#FFFFFF" stroke-miterlimit="10" d="M57.9,43h-4.6c0,0.6,0.2,1,0.5,1.4c0.4,0.4,0.8,0.6,1.4,0.6
		c0.5,0,1-0.2,1.4-0.5c0.2-0.1,0.4-0.4,0.6-0.7l0.6,0.3c-0.3,0.7-0.8,1.1-1.4,1.4c-0.3,0.1-0.6,0.2-1,0.2c-0.8,0-1.4-0.3-1.9-0.8
		c-0.5-0.5-0.8-1.1-0.8-1.9c0-0.6,0.2-1.2,0.6-1.7c0.5-0.6,1.2-1,2-1c0.9,0,1.6,0.3,2.1,1C57.7,41.7,57.9,42.3,57.9,43z M57.2,42.4
		c-0.2-0.6-0.5-1.1-1-1.3c-0.3-0.1-0.6-0.2-0.9-0.2c-0.5,0-0.9,0.2-1.3,0.5c-0.3,0.2-0.5,0.6-0.6,1C53.4,42.4,57.2,42.4,57.2,42.4z"
		/>
	<path fill="#FFFFFF" stroke="#FFFFFF" stroke-miterlimit="10" d="M63.4,40.4L63.1,41c-0.1-0.1-0.3-0.1-0.3-0.1
		c-0.5,0-0.9,0.4-1.1,1.1c-0.1,0.3-0.1,0.9-0.1,1.8v1.7h-0.7v-5.1h0.7v0.7c0.4-0.6,0.8-0.9,1.3-0.9C63,40.2,63.2,40.3,63.4,40.4z"/>
	<path fill="#FFFFFF" stroke="#FFFFFF" stroke-miterlimit="10" d="M68.4,44.1c0,0.4-0.1,0.8-0.4,1.1c-0.3,0.3-0.7,0.4-1.1,0.4
		c-0.6,0-1.1-0.2-1.5-0.7l0.4-0.5c0.3,0.4,0.7,0.6,1.1,0.6c0.2,0,0.5-0.1,0.7-0.2c0.2-0.2,0.3-0.4,0.3-0.6c0-0.2-0.1-0.5-0.3-0.7
		c-0.1-0.1-0.3-0.2-0.7-0.4c-0.4-0.2-0.7-0.4-0.8-0.6c-0.2-0.3-0.4-0.6-0.4-0.9c0-0.4,0.1-0.7,0.4-1c0.3-0.3,0.6-0.4,1-0.4
		c0.5,0,0.9,0.2,1.4,0.7L68,41.3c-0.3-0.3-0.7-0.5-1-0.5c-0.2,0-0.4,0.1-0.5,0.2s-0.2,0.3-0.2,0.5c0,0.3,0.3,0.7,1,1
		c0.4,0.2,0.7,0.4,0.9,0.6C68.3,43.4,68.4,43.7,68.4,44.1z"/>
	<path fill="#FFFFFF" stroke="#FFFFFF" stroke-miterlimit="10" d="M76.6,42.9c0,0.8-0.3,1.4-0.8,1.9c-0.5,0.5-1.1,0.8-1.9,0.8
		s-1.4-0.3-1.9-0.8c-0.5-0.5-0.8-1.1-0.8-1.9c0-0.7,0.2-1.3,0.7-1.8c0.5-0.6,1.2-0.9,2-0.9c0.8,0,1.4,0.3,1.9,0.9
		C76.4,41.6,76.6,42.2,76.6,42.9z M75.9,42.9c0-0.6-0.2-1-0.6-1.5c-0.4-0.4-0.9-0.6-1.4-0.6s-1,0.2-1.4,0.6
		c-0.4,0.4-0.6,0.9-0.6,1.5c0,0.4,0.1,0.7,0.3,1c0.2,0.3,0.4,0.6,0.7,0.7s0.6,0.3,1,0.3c0.8,0,1.3-0.3,1.7-1
		C75.8,43.6,75.9,43.3,75.9,42.9z"/>
	<path fill="#FFFFFF" stroke="#FFFFFF" stroke-miterlimit="10" d="M84.2,45.5h-0.7V43c0-0.6,0-1-0.1-1.2c-0.2-0.7-0.6-1-1.3-1
		c-0.4,0-0.8,0.1-1.1,0.4c-0.3,0.3-0.5,0.6-0.6,1c-0.1,0.2-0.1,0.7-0.1,1.4v1.9h-0.7v-5.1h0.7v0.9c0.5-0.7,1.2-1,1.9-1
		c0.4,0,0.7,0.1,1,0.3s0.5,0.4,0.7,0.8c0.1,0.3,0.2,0.8,0.2,1.5L84.2,45.5L84.2,45.5z"/>
	<path fill="#FFFFFF" stroke="#FFFFFF" stroke-miterlimit="10" d="M92.6,45.5h-0.7v-0.9c-0.6,0.7-1.2,1-2,1c-0.7,0-1.4-0.3-1.9-0.8
		c-0.5-0.5-0.7-1.2-0.7-1.9c0-0.7,0.3-1.4,0.8-1.9c0.5-0.5,1.1-0.8,1.9-0.8c0.8,0,1.5,0.4,2,1.1v-0.9h0.7L92.6,45.5L92.6,45.5z
		 M92,42.9c0-0.6-0.2-1.1-0.6-1.5c-0.4-0.4-0.9-0.6-1.4-0.6c-0.8,0-1.4,0.3-1.7,1c-0.2,0.3-0.3,0.7-0.3,1c0,0.4,0.1,0.7,0.3,1
		s0.4,0.6,0.7,0.8c0.3,0.2,0.6,0.3,1,0.3c0.4,0,0.7-0.1,1-0.3s0.6-0.4,0.7-0.7C91.9,43.7,92,43.3,92,42.9z"/>
	<path fill="#FFFFFF" stroke="#FFFFFF" stroke-miterlimit="10" d="M96.5,45.5h-0.7v-7.1h0.7V45.5z"/>
	<path fill="#FFFFFF" stroke="#FFFFFF" stroke-miterlimit="10" d="M112.1,40.4l-2.2,5.1h-0.1l-1.6-3.7l-1.6,3.7h-0.1l-2.2-5.1h0.7
		l1.6,3.7l1.6-3.7h0.1l1.6,3.7l1.6-3.7H112.1z"/>
	<path fill="#FFFFFF" stroke="#FFFFFF" stroke-miterlimit="10" d="M119.8,43h-4.6c0,0.6,0.2,1,0.5,1.4c0.4,0.4,0.8,0.6,1.4,0.6
		c0.5,0,1-0.2,1.4-0.5c0.2-0.1,0.4-0.4,0.6-0.7l0.6,0.3c-0.3,0.7-0.8,1.1-1.4,1.4c-0.3,0.1-0.6,0.2-1,0.2c-0.8,0-1.4-0.3-1.9-0.8
		c-0.5-0.5-0.8-1.1-0.8-1.9c0-0.6,0.2-1.2,0.6-1.7c0.5-0.6,1.2-1,2-1c0.9,0,1.6,0.3,2.1,1C119.6,41.7,119.8,42.3,119.8,43z
		 M119.1,42.4c-0.2-0.6-0.5-1.1-1-1.3c-0.3-0.1-0.6-0.2-0.9-0.2c-0.5,0-0.9,0.2-1.3,0.5c-0.3,0.2-0.5,0.6-0.6,1
		C115.3,42.4,119.1,42.4,119.1,42.4z"/>
	<path fill="#FFFFFF" stroke="#FFFFFF" stroke-miterlimit="10" d="M128.3,42.9c0,0.7-0.3,1.4-0.8,1.9c-0.5,0.5-1.1,0.8-1.9,0.8
		c-0.8,0-1.5-0.4-2-1.1v0.9H123v-7.1h0.7v2.8c0.5-0.7,1.2-1,2-1c0.7,0,1.4,0.3,1.9,0.8C128.1,41.5,128.3,42.2,128.3,42.9z
		 M127.7,42.9c0-0.4-0.1-0.7-0.3-1c-0.2-0.3-0.4-0.6-0.7-0.8c-0.3-0.2-0.6-0.3-1-0.3c-0.4,0-0.7,0.1-1,0.3c-0.3,0.2-0.6,0.4-0.7,0.7
		c-0.2,0.3-0.3,0.7-0.3,1c0,0.6,0.2,1.1,0.6,1.5c0.4,0.4,0.9,0.6,1.4,0.6c0.8,0,1.4-0.3,1.7-1C127.6,43.6,127.7,43.3,127.7,42.9z"/>
	<path fill="#FFFFFF" stroke="#FFFFFF" stroke-miterlimit="10" d="M138.8,40.9h-1v4.5h-0.7v-4.5h-0.9v-0.6h0.9v-1.9h0.7v1.9h1
		L138.8,40.9L138.8,40.9z"/>
	<path fill="#FFFFFF" stroke="#FFFFFF" stroke-miterlimit="10" d="M146.7,43h-4.6c0,0.6,0.2,1,0.5,1.4c0.4,0.4,0.8,0.6,1.4,0.6
		c0.5,0,1-0.2,1.4-0.5c0.2-0.1,0.4-0.4,0.6-0.7l0.6,0.3c-0.3,0.7-0.8,1.1-1.4,1.4c-0.3,0.1-0.6,0.2-1,0.2c-0.8,0-1.4-0.3-1.9-0.8
		c-0.5-0.5-0.8-1.1-0.8-1.9c0-0.6,0.2-1.2,0.6-1.7c0.5-0.6,1.2-1,2-1c0.9,0,1.6,0.3,2.1,1C146.6,41.7,146.7,42.3,146.7,43z
		 M146,42.4c-0.2-0.6-0.5-1.1-1-1.3c-0.3-0.1-0.6-0.2-0.9-0.2c-0.5,0-0.9,0.2-1.3,0.5c-0.3,0.2-0.5,0.6-0.6,1
		C142.2,42.4,146,42.4,146,42.4z"/>
	<path fill="#FFFFFF" stroke="#FFFFFF" stroke-miterlimit="10" d="M155,45.5h-0.7v-0.9c-0.6,0.7-1.2,1-2,1c-0.7,0-1.4-0.3-1.9-0.8
		c-0.5-0.5-0.7-1.2-0.7-1.9c0-0.7,0.3-1.4,0.8-1.9c0.5-0.5,1.1-0.8,1.9-0.8c0.8,0,1.5,0.4,2,1.1v-0.9h0.7V45.5z M154.4,42.9
		c0-0.6-0.2-1.1-0.6-1.5c-0.4-0.4-0.9-0.6-1.4-0.6c-0.8,0-1.4,0.3-1.7,1c-0.2,0.3-0.3,0.7-0.3,1c0,0.4,0.1,0.7,0.3,1
		c0.2,0.3,0.4,0.6,0.7,0.8c0.3,0.2,0.6,0.3,1,0.3c0.4,0,0.7-0.1,1-0.3s0.6-0.4,0.7-0.7C154.3,43.7,154.4,43.3,154.4,42.9z"/>
	<path fill="#FFFFFF" stroke="#FFFFFF" stroke-miterlimit="10" d="M166,45.5h-0.7v-2.8c0-0.4,0-0.7-0.1-0.9
		c-0.1-0.3-0.2-0.6-0.5-0.7c-0.2-0.1-0.4-0.2-0.7-0.2c-0.3,0-0.6,0.1-0.9,0.3s-0.5,0.4-0.6,0.7c-0.1,0.3-0.2,0.8-0.2,1.6v2h-0.7
		v-2.6c0-0.5,0-0.8,0-1c-0.1-0.4-0.2-0.6-0.5-0.8c-0.2-0.1-0.4-0.2-0.7-0.2c-0.3,0-0.6,0.1-0.9,0.3c-0.3,0.2-0.4,0.4-0.6,0.7
		c-0.1,0.3-0.2,0.8-0.2,1.4v2.2h-0.7v-5.1h0.7v0.9c0.5-0.7,1.1-1,1.8-1c0.5,0,0.9,0.2,1.2,0.5c0.1,0.2,0.3,0.4,0.4,0.7
		c0.4-0.8,1.1-1.2,1.9-1.2c0.7,0,1.3,0.3,1.5,1c0.1,0.3,0.2,0.8,0.2,1.4L166,45.5L166,45.5z"/>
</g>
<path fill="#FFFFFF" stroke="#FFFFFF" stroke-width="1.4173" stroke-miterlimit="10" d="M22.2,9.5v2.7H7.9V9.5H22.2z M13.7,16h2.7
	v13.2h-2.7C13.7,29.2,13.7,16,13.7,16z"/>
<path fill="#FFFFFF" stroke="#FFFFFF" stroke-width="1.4173" stroke-miterlimit="10" d="M40.7,18v11.2H38v-8.6H25.6V9.5h2.7V18H40.7
	z M25.6,23.9h2.7v5.3h-2.7C25.6,29.2,25.6,23.9,25.6,23.9z M40.7,9.5v5.3H38V9.5H40.7z"/>
<path fill="#FFFFFF" stroke="#FFFFFF" stroke-width="1.4173" stroke-miterlimit="10" d="M58,12.2H45.1V9.5H58V12.2z M57.2,20.7H45.1
	V18h12.1V20.7z M58.2,26.5v2.7H45.1v-2.7H58.2z"/>
<path fill="#FFFFFF" stroke="#FFFFFF" stroke-width="1.4173" stroke-miterlimit="10" d="M79.5,26.7c-4.1,0-6.8-3.3-6.8-7.4
	c0-4.1,2.7-7.4,6.8-7.4c2.5,0,4.5,1.2,5.7,3.1l2.5-1.2C86,11.2,83,9.3,79.5,9.3c-5.6,0-9.6,4.5-9.6,10.1c0,5.6,4,10,9.6,10
	c3.6,0,6.5-1.8,8.1-4.6l-2.5-1.2C84,25.5,82,26.7,79.5,26.7z"/>
<path fill="#FFFFFF" stroke="#FFFFFF" stroke-width="1.4173" stroke-miterlimit="10" d="M128.7,19.4c0,5.8-4,9.9-10.3,9.9h-5.8v-9.5
	h2.7v6.8h3.1c4.6,0,7.6-2.8,7.6-7.2s-2.9-7.2-7.6-7.2h-5.8V9.5h5.8C124.7,9.5,128.7,13.6,128.7,19.4z"/>
<path fill="#FFFFFF" stroke="#FFFFFF" stroke-width="1.4173" stroke-miterlimit="10" d="M145.1,12.2h-12.9V9.5h12.9V12.2z
	 M144.3,20.7h-12.1V18h12.1V20.7z M145.3,26.5v2.7h-13.1v-2.7H145.3z"/>
<path fill="#FFFFFF" stroke="#FFFFFF" stroke-width="1.4173" stroke-miterlimit="10" d="M156.4,22.2h-4.7v7h-2.7v-9.7h7.4
	c2.4,0,3.7-1.7,3.7-3.7c0-1.9-1.3-3.7-3.7-3.7h-7.4V9.5h7.4c4,0,6.5,2.8,6.5,6.4c0,2.6-1.4,4.8-3.7,5.8l4.3,7.6h-3.1L156.4,22.2z"/>
<path fill="#FFFFFF" stroke="#FFFFFF" stroke-width="1.7008" stroke-miterlimit="10" d="M105,11.6c1.3,1.3,2.1,3.1,2.1,5.2
	c0,2-0.8,3.8-2.1,5.2c-1.3,1.3-3.1,2.1-5.2,2.1s-3.8-0.8-5.2-2.1c-1.3-1.3-2.1-3.1-2.1-5.2s0.8-3.8,2.1-5.2c1.3-1.3,3.1-2.1,5.2-2.1
	S103.7,10.3,105,11.6z M103.7,20.7c1-1,1.6-2.4,1.6-3.9c0-1.5-0.6-2.9-1.6-3.9c-1-1-2.4-1.6-3.9-1.6s-2.9,0.6-3.9,1.6
	s-1.6,2.4-1.6,3.9c0,1.5,0.6,2.9,1.6,3.9c1,1,2.4,1.6,3.9,1.6S102.7,21.7,103.7,20.7z"/>
<path fill="#FFFFFF" stroke="#FFFFFF" stroke-width="1.4173" stroke-miterlimit="10" d="M106.6,29.9c0,0.2-0.2,0.3-0.4,0.3l-6-2.2
	l-6,2.2c-0.2,0-0.4-0.2-0.4-0.3V26c0-0.2,0.2-0.3,0.4-0.3l6,2.3l6-2.3c0.2,0,0.4,0.2,0.4,0.3V29.9z"/>
</svg>
