<?xml version="1.0" encoding="utf-8"?>
<!-- Generator: Adobe Illustrator 17.0.0, SVG Export Plug-In . SVG Version: 6.00 Build 0)  -->
<!DOCTYPE svg PUBLIC "-//W3C//DTD SVG 1.1//EN" "http://www.w3.org/Graphics/SVG/1.1/DTD/svg11.dtd">
<svg version="1.1" id="Слой_1" xmlns="http://www.w3.org/2000/svg" xmlns:xlink="http://www.w3.org/1999/xlink" x="0px" y="0px"
	 width="174px" height="56px" viewBox="0 0 174 56" enable-background="new 0 0 174 56" xml:space="preserve">
<metadata><?xpacket begin="﻿" id="W5M0MpCehiHzreSzNTczkc9d"?>
<x:xmpmeta xmlns:x="adobe:ns:meta/" x:xmptk="Adobe XMP Core 5.5-c014 79.151739, 2013/04/03-12:12:15        ">
   <rdf:RDF xmlns:rdf="http://www.w3.org/1999/02/22-rdf-syntax-ns#">
      <rdf:Description rdf:about=""
            xmlns:xmpMM="http://ns.adobe.com/xap/1.0/mm/"
            xmlns:stRef="http://ns.adobe.com/xap/1.0/sType/ResourceRef#"
            xmlns:stEvt="http://ns.adobe.com/xap/1.0/sType/ResourceEvent#"
            xmlns:xmp="http://ns.adobe.com/xap/1.0/"
            xmlns:xmpGImg="http://ns.adobe.com/xap/1.0/g/img/"
            xmlns:pdf="http://ns.adobe.com/pdf/1.3/"
            xmlns:dc="http://purl.org/dc/elements/1.1/"
            xmlns:xmpTPg="http://ns.adobe.com/xap/1.0/t/pg/"
            xmlns:stDim="http://ns.adobe.com/xap/1.0/sType/Dimensions#"
            xmlns:xmpG="http://ns.adobe.com/xap/1.0/g/">
         <xmpMM:RenditionClass>proof:pdf</xmpMM:RenditionClass>
         <xmpMM:DocumentID>xmp.did:c2355ac5-a045-8049-a67d-bd6b7836b4f6</xmpMM:DocumentID>
         <xmpMM:InstanceID>xmp.iid:c2355ac5-a045-8049-a67d-bd6b7836b4f6</xmpMM:InstanceID>
         <xmpMM:OriginalDocumentID>uuid:89718b57-350f-4b78-897b-212a34691fe4</xmpMM:OriginalDocumentID>
         <xmpMM:DerivedFrom rdf:parseType="Resource">
            <stRef:instanceID>uuid:741892d1-a630-4bc1-83f9-81bdfdf14045</stRef:instanceID>
            <stRef:documentID>uuid:89718b57-350f-4b78-897b-212a34691fe4</stRef:documentID>
            <stRef:originalDocumentID>uuid:89718b57-350f-4b78-897b-212a34691fe4</stRef:originalDocumentID>
            <stRef:renditionClass>proof:pdf</stRef:renditionClass>
         </xmpMM:DerivedFrom>
         <xmpMM:History>
            <rdf:Seq>
               <rdf:li rdf:parseType="Resource">
                  <stEvt:action>saved</stEvt:action>
                  <stEvt:instanceID>xmp.iid:c2355ac5-a045-8049-a67d-bd6b7836b4f6</stEvt:instanceID>
                  <stEvt:when>2018-08-02T15:43:46+03:00</stEvt:when>
                  <stEvt:softwareAgent>Adobe Illustrator CC (Windows)</stEvt:softwareAgent>
                  <stEvt:changed>/</stEvt:changed>
               </rdf:li>
            </rdf:Seq>
         </xmpMM:History>
         <xmp:CreateDate>2018-08-02T15:43:46+03:00</xmp:CreateDate>
         <xmp:CreatorTool>Adobe Illustrator CC (Windows)</xmp:CreatorTool>
         <xmp:ModifyDate>2018-08-02T15:43:46+03:00</xmp:ModifyDate>
         <xmp:MetadataDate>2018-08-02T15:43:46+03:00</xmp:MetadataDate>
         <xmp:Thumbnails>
            <rdf:Alt>
               <rdf:li rdf:parseType="Resource">
                  <xmpGImg:width>256</xmpGImg:width>
                  <xmpGImg:height>64</xmpGImg:height>
                  <xmpGImg:format>JPEG</xmpGImg:format>
                  <xmpGImg:image>/9j/4AAQSkZJRgABAgEASABIAAD/7QAsUGhvdG9zaG9wIDMuMAA4QklNA+0AAAAAABAASAAAAAEA&#xA;AQBIAAAAAQAB/+4ADkFkb2JlAGTAAAAAAf/bAIQABgQEBAUEBgUFBgkGBQYJCwgGBggLDAoKCwoK&#xA;DBAMDAwMDAwQDA4PEA8ODBMTFBQTExwbGxscHx8fHx8fHx8fHwEHBwcNDA0YEBAYGhURFRofHx8f&#xA;Hx8fHx8fHx8fHx8fHx8fHx8fHx8fHx8fHx8fHx8fHx8fHx8fHx8fHx8fHx8f/8AAEQgAQAEAAwER&#xA;AAIRAQMRAf/EAaIAAAAHAQEBAQEAAAAAAAAAAAQFAwIGAQAHCAkKCwEAAgIDAQEBAQEAAAAAAAAA&#xA;AQACAwQFBgcICQoLEAACAQMDAgQCBgcDBAIGAnMBAgMRBAAFIRIxQVEGE2EicYEUMpGhBxWxQiPB&#xA;UtHhMxZi8CRygvElQzRTkqKyY3PCNUQnk6OzNhdUZHTD0uIIJoMJChgZhJRFRqS0VtNVKBry4/PE&#xA;1OT0ZXWFlaW1xdXl9WZ2hpamtsbW5vY3R1dnd4eXp7fH1+f3OEhYaHiImKi4yNjo+Ck5SVlpeYmZ&#xA;qbnJ2en5KjpKWmp6ipqqusra6voRAAICAQIDBQUEBQYECAMDbQEAAhEDBCESMUEFURNhIgZxgZEy&#xA;obHwFMHR4SNCFVJicvEzJDRDghaSUyWiY7LCB3PSNeJEgxdUkwgJChgZJjZFGidkdFU38qOzwygp&#xA;0+PzhJSktMTU5PRldYWVpbXF1eX1RlZmdoaWprbG1ub2R1dnd4eXp7fH1+f3OEhYaHiImKi4yNjo&#xA;+DlJWWl5iZmpucnZ6fkqOkpaanqKmqq6ytrq+v/aAAwDAQACEQMRAD8A4p/yqr88P+pc1z/kTPir&#xA;v+VVfnh/1Lmuf8iZ8Vd/yqr88P8AqXNc/wCRM+KvWf8AnICPW9J/Iz8tLS89ey1KGNYryJyySrIt&#xA;sAyyDY1B8cVegf8AOGFxcT/ldqjzyvK41ucBnYsafVLXapxV73ir86dJ1LUT+ctnGbqYofMUalfU&#xA;alPrwFKVxV9Gf85eeVPPGv8A+E/8Ladfah9W/SH1z6ikj8PU+renz4dK8GpXwOKvnX/lVX54f9S5&#xA;rn/ImfFXf8qq/PD/AKlzXP8AkTPir6t/5xR8v+atD/LvUbTzNZXdhfvq80sUN6rpIYTbWyqwD78e&#xA;SsPvxV7PiqG1TU7DStOudS1Gdbaws4nnuriQ0VI4xyZj8gMVfEX5s/8AOUXnXzZfzWXlq5m0Dy8r&#xA;MkK27GO7nWtA80qHktR+whp2PLrirBE/LL83b2MauvlvWpw4Mq3ZtrhnYdeQJXmfnirJPy6/5yG/&#xA;MryJqaW95dz6tpMT8LvR9Rd3ZQDRhFJJykhYeH2a9VOKvuPyb5u0Tzf5bsvMOiy+rYXyck5UDowN&#xA;HjkUE0dGBBGKvn3/AJyS/wCcj9W0LVpvJnk2cW97bqBq+rLRnjdxX0IK1Csqn436g7ChBxV4/Yfk&#xA;P+ffmu1TzA+mXVw0w9aCfULuOO5kr8QYC4lWQV2oWpXFUx8h/nd+aP5VeZ/0H5o+uXWmW7rFqGia&#xA;gWaWGM0PO2eQkp8PxKAeDD5hgq+4NI1bT9Y0q01XTphcWF9ClxazL0aORQynfpscVfn75l8g/nDL&#xA;5j1WSDy55heB7y4aJ0sr0oyGVipUhKEEdKYql3+Efzp0sNejRfMlisQq1z9Wv4QoBrUvxWnTxxVm&#xA;P5cf85SfmP5UvYoNbupPMWjBuM9retyuUFd2iuWrJyHhIWHy64q+1/KfmrRfNfl6y1/RZ/rGnX0f&#xA;qRP0ZSDRkcb8XRgVYeOKvgnUvyt/O19Runj8u620bTSFCIZ6EFjSmKof/lVX54f9S5rn/ImfFUx8&#xA;t/lf+dMPmLS5rjy9raQR3cDyu8U4UIsqli1ewGKvaP8AnLXyf5/17zFoM3ljS9Qv4IbOVLh7FJHV&#xA;XMtQG4d6Yq8G/wCVVfnh/wBS5rn/ACJnxVRsfNf5v/lvrEQN1quhXa/vBY3omSKVQTu1vOOEik13&#xA;4/LFX25+Sn5qWv5keS4tZ9JbbU7dza6raIaqk6gNySu/CRWDLXpuKmlcVZ9ir5K/NP8A5yj/ADL8&#xA;r/mFrvl/TYtONjp1yYbczQSNJxCg/EwlUE7+GKvrXFXzX/zm9/yi3lr/AJjpv+TOKsf/AOcX/wA5&#xA;vy18keQdQ0rzPrH6Pv59Vmuoofq11NWF7a3jVuUEUq/aiYUrXbFXr/8A0NH+RP8A1M3/AE46h/2T&#xA;4q8c0by//wA4nXXnex1Ow86axNrM+pxXNpbGGVYnunuA8aHlp60UyEDdxt374q+jvPX5peRPIn1H&#xA;/Fep/o79I+r9T/cXE/P0OHqf3EcvHj6q/ap12xVin/Q0f5E/9TN/046h/wBk+Ku/6Gj/ACJ/6mb/&#xA;AKcdQ/7J8Veh+W/Mmi+ZdEtdc0S4+t6XeqXtbjhJHzCsUJ4Sqjj4lI3GKplir55/5zQ82XOm+RtK&#xA;8v28hj/T10zXNP24LIK5Q+3qyRt9GKsR/wCcOPyw0vUTf+etVt1uXsbj6no0cgBRJlRZJZ6HqyiR&#xA;VQ9vi70oq+tMVeWfmv8A848+T/zG1aw1W8lk0y9tyVvrizRBLdQcaKjswIDIacXKnaop0oqzPyR5&#xA;D8seSNEXRfLlp9Vsg5lkDO8jySsAGkdnJJYhR7eGKvib8nbK080f85E2X+IKTG51K9vp45RUS3ES&#xA;y3Cqwav+7EBoevTFX3zir5k/5zc0bSf0F5d1r00XVlupLMSigd7dozIVbuwR1FPDkfHFWef84oXt&#xA;3dfkrpS3BZltp7uC3Zq7xCdmFCewLlR8qYq9fxV2Kvmv/nLz8qNFl8sN59022S11WwmjTVniUKLm&#xA;GdxEskgHWRJGX4upBNegoqlH/OEnmu6aTzD5UlctbKkep2iH9huQhnp/rVj+7FXrMv8Azk9+RsMr&#xA;xSeZeMkbFHX6jqBoVNCNrfFVn/Q0f5E/9TN/046h/wBk+Kpt5W/Pv8p/NWu2ug6Drv1zVrzn9Wtv&#xA;qt5Fy9KNpX+OWFEFERju2Ks/xV2Kvnj/AJzSvfLg8haZZXTxtrzX6S6bECPWWII6zv4+mfhB8W4+&#xA;GKse/wCcG0vOPnF/+PMmwUVrQyj6wTx7fZPxfRir6oxV+df5/f8Ak5PNn/Mc3/EVxV+imKvIv+ci&#xA;/wAsf8faLpFn+m7PRPqVzJN6t8aLJyj48V3XcdcVeK2X/OGOtX8RmsfN+l3cStwaSBJJFDAA8SVJ&#xA;FaEYqiP+hIfNX/Uy2P8AyJmxV4n5QsXsPzR0Sxdg72mt2sDONgTHdqpIr40xV9mf85Bfkhqv5o/o&#xA;H6hqcGnfof636nro78/rPo048OnH0DX54q8f/wChIfNX/Uy2P/ImbFXf9CQ+av8AqZbH/kTNir6V&#xA;/K3ydc+TPIWkeWbm4S7n02N0e4iBVGLyvJsG3/bxVlWKvmH/AJzi0y5k0nylqij/AEa1uL22lamw&#xA;kuUhdBX3Fs+Kpt/zhXr9jceQtW0MOBf2GoNcyRV3MNzEgR6f68Tg4q+iMVQWpa3o2lvapqV9b2TX&#xA;svoWguJUi9WUgsI05kcmoDsMVRuKvh3/AJyA/LjzJ+W/5jnzpofqQ6Tf3v1/TtQiFRbXjMZXgfqB&#xA;8dSgIoy7b0OKvQNB/wCc3LAaQq6/5cmbV41AZ7KVBbyt3aknxRV8PixV5D5186+fPz28+WFlZWFC&#xA;Kw6TpMJLxwRuQZJZZCB4AySEAUA2xV9vfl55NtPJnkrSPLNq3qJp0ASSXp6kzkyTSU7c5XZgO2Kv&#xA;h3S/PHnVvzetLRvMGpNat5gjia3N5OYzGb0LwKc+PHjtTFX6CYq8c/5yv8y2Wk/k9qNhK4F5rcsF&#xA;nZxdzxlWaVqeCxxHfxIxV45/zhJpU8nnfzBqwU+ha6YLR3/ZD3Nwkijp1pbN3xVG3n/OFHmm4vJ5&#xA;x5ksVEsjuAYZqgMxOKqP/QkPmr/qZbH/AJEzYqzD8o/+cWNf8jfmFpPmm71y0vLfTvrHO2iikV29&#xA;e2lgFC22xlrirG/+c0NZ1ew8z+XEsb64tEeymLrBK8YJEtKkKRXFXiWk6X+cusWKX+kWnmLUbGQs&#xA;I7u0jvp4mKniwEkYZTQih3xVjlpDe63rlraXV4Eub2eO3a8vXfghkcJzlch2CrX4jTYYq/Q/8pPy&#xA;y0z8uvJ0Gg2b/WLlmNxqN7x4me4cAM1KmiqFCqPAeNcVZpir86/z+/8AJyebP+Y5v+Irir9FMVfN&#xA;f/Ob3/KLeWv+Y6b/AJM4qmv/ADhV/wCSs1X/ALblx/1B2mKvf8VfnBpP/k6LL/wI4v8AqOGKvsX8&#xA;+/zxuvyt/QX1fSI9V/TH1rl6kxh9P6r6NKUSTly9f8MVeS/9Dx6r/wBSjB/0mv8A9UcVd/0PHqv/&#xA;AFKMH/Sa/wD1RxV7X+Rf5uXH5m+Xr/Vp9MTS2srv6oIUlMwYekknKpVKfbpir0nFWKfmj5AsPPvk&#xA;rUPLd23pPcKJLO5pUw3MZ5RSfKuzeKkjFXwdZ3n5i/k558dkV9K1yyrHLFIvOC4gY7gj7MsMnGoI&#xA;+YIYbKvaYP8AnOPUlsglx5QhkvuNDPHfOkXLx9IwO1Pb1PpxV41538/+f/zc81Wv1uNry7YmDSdH&#xA;sY2McQehKxp8TEtSrOxJ96AAKvt78lvJWu+TvIFhpGvajNqOq7y3HqytMkHMDjbQli3wRAU22JqR&#xA;tTFXkX/OQn/OQHmDyl58/wAKRaRp2p+XxaRPqNlqEZmFz6/xEHcBQoX4djvua7AKsD0TzJ/ziRrk&#xA;Ut3r/lm88uagFLyWkE93PbSP14wtC/w18CiLiq25/wCclvLvlS2m038pfJ9rodvIaSanfAzXUqjp&#xA;yUMzbducr/LFX1h+W3mm681+Q9D8xXUKW91qVqk08URJQPuG413oSKgHp74q/PS91VtH/MefVljE&#xA;zadrD3awk8Q5gujJxJoaV40xV7re/wDOcHmN7dlsvK9nBcH7Mk1xLMg27oqwk/8ABYq8d13zJ+ZH&#xA;5u+b7dbn1dY1eb91Y2FunGKFCakRoPhRB1d2PTdm2xV9tfkb+VMH5ceS49LkZJtYvH+s6vcp9lpi&#xA;ABGhO/CJfhHiattXFXid5/zm5qlvdzwDynAwikZA31xxXixFf7nFVL/oePVf+pRg/wCk1/8Aqjiq&#xA;rZ/85uapcXcEB8pwKJZFQt9cc05MBX+5xVL/APnN7/lKvLX/ADAzf8nsVewf84n/APkktI/4z3n/&#xA;AFEvir58/wCcrfyt/wAK+dv8RafFx0TzGzzEKPhivRvPH7B6+ovzYD7OKvf/APnGD80v8aeQ006/&#xA;m5695fCWt3yNXlgpS3n96qvBv8pa98Vex4q8y8x/844flN5j1y81zVtMmm1G/kM1zKt1cIGcgCoV&#xA;XCjp2xV6birFfP8A+WXk/wA+2dpaeZrV7qCykaW3VJZISHZeJJMbLXbFVbyH+XvlbyJpE2keWrZ7&#xA;WxnuGu5I3leYmV0SMnlIWP2Yl2xVkmKvL4f+cavyjh12PXY9LmGpR3Qvkl+tXBHrrJ6objz4/b7Y&#xA;qyH8wfyn8kfmB9Q/xRZyXf6M9b6n6c0sPH1+HqV9NlrX0l64qw//AKFP/JL/AKtE/wD0mXP/ADXi&#xA;rv8AoU/8kv8Aq0T/APSZc/8ANeKs48hflv5T8h6bcad5atXtbS6m+sTI8skxMnEJWshYj4VGKsnx&#xA;V2KpF5t8ieUPN9iLLzLpUGpwJX0jKpEkZPUxyoVkjr/ksMVeYSf84gfk490Jlh1COMf8ey3R9M9e&#xA;7K0n/DYq9C8lfld5B8kxsvlrRoLGZ14y3fxS3DrsSGmlLycSRXjWntirKsVeO/mf/wA40+XPzB86&#xA;w+ZdQ1W6s09BILyzt1jJl9I/AySvX0/hND8DV9u6rJPLX5D/AJTeXrJrWz8t2lx6qGOe4vkF3K4Y&#xA;Uarz86V7haD2xVhXnT/nEH8tNcLz6I8/ly8ff/Rz69tU9zBKaj5JIoxV615N8r2XlXytpnl2ykea&#xA;20yBbeOWWnN+PVmoANya4q81vv8AnE78ob29uLye3vTPcyPNKRdMBzkYs1BTxOKutP8AnEv8lYH5&#xA;S6bdXQqDwlvJwNu37pozv88Vej+VvI3lDypbNbeXNItdMjcASNBGBI9OnqSGrv8A7JjiqeYq8jm/&#xA;5xU/JWaZ5pNInMkjF3P1y5G7Gp/bxVZ/0Kf+SX/Von/6TLn/AJrxVfD/AM4qfkrDMk0ekTiSNg6H&#xA;65cndTUft4qyfz/+TnkLz7eWl55mspLqeyjaG3ZJ5YQEZuRBEbLXfFU68m+TdA8naBBoOgwNb6Zb&#xA;s7xRO7ykGVy7fE5ZvtNiq3zp5J8t+c9CfQ/MVp9b093SXgGaNlkjNVZXQqynqNj0JGKse8j/AJG/&#xA;l35H1ltY8t2c9nevE1vIxup5EeJyCVZHZlPxKD06jFWfYq7FXYq7FXYq7FXYq7FXYq7FXYq7FXYq&#xA;7FXYq7FXYq7FXYq7FXYq7FXYq7FXYq7FXYq7FXYq7FXYq7FUm853+vad5W1LUNAt4rvVrOE3FtaT&#xA;Bis3pEO8Q4Mh5vGGVDXZiCajbFUk03z+df8ANWi2Hl30rjR7jSv01q13IrF44Lqi2EUZVgqSyuHZ&#xA;g4Pwoe5riqW6l5o/MbXPNms6L5KXS7Oy8uGGG+1DVkuJ/rF5NCLgQQxwPHxjRHUSOTWp+EYqjdH8&#xA;/wCp3/5b6x5hnso7PXdEj1GG+sWLSQLe6aJFYK3wM0TNGGHQ0OKonVfOV/a+XfKupwJA8mu3umW1&#xA;xUMUEd/T1Giow3APw1J+nFUN5j8z+cR+YNh5S0BLCOO60ubU7i+vo5pTEILmOEhY4pIvU5+rSnJa&#xA;fartxKrOcVYH5/8ANPnmx81eWvLflO2sJZ9dh1GW4u9RExjtlsfq5WUiFlZgfXZOPdivxKAaqqvl&#xA;DzT5pHmu+8nebY7STVbezj1Kw1PTlkjgubR5DC/OGVpGiljkFCOZDVqKYqwrXvzp1+XzTrWn6Nd6&#xA;dpdjoNy1iBqNjqV7LeXESgy0ezAjgiDNxB+JqitKbYqyTV/zR1VfyWbz9p2mrBqhgicaZeh+KzNc&#xA;rbyxtQxNTkW4tt2NO2Kpzrer+d9C8h6jqtxDa6n5gtwZIbeygn9FI3kUfFGHkmm9BGZ24cS4XZQc&#xA;VXeV/N00/kSXzNql9p+pwW8M9yb7RvUMEsECliRHKWaOX4SGjLHidq4qwyb8wvzX0zyzb+f9ZstI&#xA;HlOVYbq70WAXP6RtrC4deEvrs3pSTRpKGkT01G1Aa4qyv8yfNfmrRLny3YeWrS0u7/XtQewIvTII&#xA;41+qzTerWNgaRmIOwoeSgqKEghVU8n+Y/Mz+ZdX8q+Zfqk2o6bbWl9BqFhFLBDPb3hlShhleYq8c&#xA;luwqJCGBHTfFUnXzP+aHmO81m58ox6Ta6Vot9PpsMGqJcPNfT2bGO5PqQui28fqVVDwckip22xVK&#xA;9d81al5r/wCcatc1/UrZLO+vdJ1AzWsYYLGY3liCfEWNQEHL38MVep6T/wAcqy/4wRf8QGKpH528&#xA;zX/lxtFvxHE+iTahFZa3I6sZIY7usUE6OGCqq3LRq/JT8LdqYqw8fnrZLcechLZkW+hRtL5flFf9&#xA;yfpSfUpVj8SuoD0dv5lxVNvP35ga15L8iaVf38FtL5m1Oa104IqzfUo764jZ5HZY/WmMMQjdqKSz&#xA;AUG5xVKvy/8AzR1rUvNUPl3VZrXV47y3lnt9V06xv7FIZYaM0E8d4GBDISY5Ff8AZoVrQ4qhQPPM&#xA;v50+dLbyvJp9osmn6M97qGoRy3Hp8FuhFHHBE8HIycmqxeihehrirM/y/wDNer6yur6Zr9tBa+Yv&#xA;L959S1JbQsbaUPEk8E8Icl1SWKUHi24NcVZZiry38jIvMiP50/S1zZzJ/iO+DC1glhP1kcPWesk0&#xA;37tvh4L1G9WPZVi1z+fXmW8l1HVNIl02HS7GeeKw0e5stSnur5LaQxs31y3VreFpSh9P4WAr8WKv&#xA;SvMn5gNp/kSw8xWFi01/rX1GHSNNuCYibrU2RII5jQlAhlq+1diOuKpHL5j/ADa0HzV5a03Xxo2o&#xA;aR5gvmtJL6xhuoJLdltZp/S9OSWVW5el8L8uisCu4IVR/m3zR56Hn2w8oeV49Pj+uaZNqNxqF+ks&#xA;v1cQzpDURxyRepUyKAtRua1oKYqxSX8yvzcHlrW/M72Gj2ll5RuLi11axb6xLJftYycbqW2lDoLd&#xA;DH/dB1c8uu2KvaSQASeg32FT9wxV59+S/koeXNAv76exbTr/AF+/uNQlsHPJrW3eRvqtpXfaGL9n&#xA;oGZqYqjNY/L3VD5jvNf8seYZvL15qqRrrEQt4byC4aFPTimEc393KiUXkpoQByU4qmvl7yRo2ieW&#xA;JPL0fqXdrdfWG1Ce6bnPdS3jM1xLM4C1aRnNaAeA2xVj2hflTeWNxo8WqeZrzWNF8uSCXQ9Lmihi&#xA;9No0MUBuJowJJzCjELWg7kHFWVN5cgbzdH5k9ZvXj099OFvQcCjzLNzr1rVKYqm+KvPfP/lHX9c8&#xA;9+VL3Sb+60j9GWerE6rbLHIsc0zWYiimilDJIkqpJ8J8KgggYqnHlPyPLpGq32vavqsuu+YtQjS2&#xA;l1CWNIEitYiWjt7eCP4Y0DMWO5LMak4qll9+WWqxaxql/wCV/NN35dg1yU3OrWUVvbXMbXLKqNPA&#xA;Z1LQyOqDl1B60riqZ61+X1hqXkA+SzeXK2fpQQi9mc3FyRbyJKGd5PtMxj3/AApiqceY9L1HU9Hn&#xA;s9N1SbRr1+DQajbpFK8bI4f7EqsjK3GjDuO+KpZ5U8j2miaBe6Vd3Daq+rT3N1q1xLHHEs8t5/fU&#xA;iiCoikbcR95OKsbg/J28On2/l3UPNN7qPkq1eMx6FNFB6rwwsHitprxQJXhRlHw0BIHEtTFWZax5&#xA;ch1PWNC1OSZo5NCuZrqKNQCJGmtJrQqxPQBbgtt3GKuh8uQxebrvzIJmM93p9tpzW9BwVLWaeZXB&#xA;61Y3RB+WKsZuvyx1WHU9Vn8ueabzQdO12Z7rVNPhhgmpcSgCaa0llUtbvLSrH4vi+ICuKom1/K/T&#xA;rb8rZvy9jvZjYS2txZi9cK0wS5d3LHsSvqfTirMLWAW9tFADyESKgY9SFFK4qgvMeg6f5g0HUND1&#xA;BedlqVvJbTgfaCyKV5KezL1U9jirGW/KHyk0Hk6ExNx8lur6edqy8Y6fvqdeUyJOfF1GKpx518nW&#xA;PmvSY7G4nms7i0uYb7TdQtiomtru3PKKaPmHU0qQQRupIxVA+WvJeu2Os/pnzB5nu9fvY7drW1iM&#xA;UVnaRI7Kzv8AV4BR5GMY+NyadgMVS3Wfyv1Ofzpe+cNC8zXOiatewW9pLGsENzbNDByqJIpftElg&#xA;QwYFae+Kp/5M8n2/lmxuo/rc2o6lqNw19q2qXPES3FzIqqWKoFREVUVURRRVH04qyDFUj8reVbfy&#xA;9+l/Rnef9L6ncarJzAHB7njWNadQvDFWKS/lHqkDahYaH5tvtF8s6pPJcXOj28NuzxNcMXuFtbp1&#xA;MkCysxNBXifs0xVlfmTydpWv+WW8v3bzx24ERtrqKVhcwy2zK8E8czcm9SN0VgzVqetd8VY3b/ln&#xA;5guNe0XWfMXm661iTQbhrixtRa29pAS8EkDGVIhV5CJPt1oNwFHI4qylvLkDebo/MnrN68envpwt&#xA;6DgUeZZudetapTFUou/y5srnyn5l8uNeSLB5lmvp55wq84jfklgg6HhXauKv/9k=</xmpGImg:image>
               </rdf:li>
            </rdf:Alt>
         </xmp:Thumbnails>
         <pdf:Producer>Adobe PDF library 10.01</pdf:Producer>
         <dc:format>image/svg+xml</dc:format>
         <xmpTPg:MaxPageSize rdf:parseType="Resource">
            <stDim:w>6.138333</stDim:w>
            <stDim:h>1.975556</stDim:h>
            <stDim:unit>Centimeters</stDim:unit>
         </xmpTPg:MaxPageSize>
         <xmpTPg:NPages>1</xmpTPg:NPages>
         <xmpTPg:HasVisibleTransparency>False</xmpTPg:HasVisibleTransparency>
         <xmpTPg:HasVisibleOverprint>False</xmpTPg:HasVisibleOverprint>
         <xmpTPg:PlateNames>
            <rdf:Seq>
               <rdf:li>Cyan</rdf:li>
               <rdf:li>Magenta</rdf:li>
               <rdf:li>Yellow</rdf:li>
               <rdf:li>Black</rdf:li>
            </rdf:Seq>
         </xmpTPg:PlateNames>
         <xmpTPg:SwatchGroups>
            <rdf:Seq>
               <rdf:li rdf:parseType="Resource">
                  <xmpG:groupName>Группа образцов по умолчанию</xmpG:groupName>
                  <xmpG:groupType>0</xmpG:groupType>
               </rdf:li>
            </rdf:Seq>
         </xmpTPg:SwatchGroups>
      </rdf:Description>
   </rdf:RDF>
</x:xmpmeta>
                                                                                                    
                                                                                                    
                                                                                                    
                                                                                                    
                                                                                                    
                                                                                                    
                                                                                                    
                                                                                                    
                                                                                                    
                                                                                                    
                                                                                                    
                                                                                                    
                                                                                                    
                                                                                                    
                                                                                                    
                                                                                                    
                                                                                                    
                                                                                                    
                                                                                                    
                                                                                                    
                           
<?xpacket end="w"?>
	</metadata>
<g>
	<path d="M15.808,40.357l-3.04,6.962h-0.689l0.979-2.249l-2.095-4.713h0.689l1.757,3.926l1.705-3.926H15.808z"/>
	<path d="M23.64,42.92c0,0.75-0.255,1.381-0.763,1.895c-0.509,0.514-1.139,0.77-1.889,0.77s-1.38-0.256-1.89-0.768
		c-0.511-0.513-0.766-1.145-0.766-1.897c0-0.706,0.234-1.318,0.703-1.837c0.515-0.572,1.167-0.857,1.954-0.857
		c0.784,0,1.434,0.284,1.949,0.852C23.407,41.596,23.64,42.211,23.64,42.92z M22.97,42.933c0-0.561-0.191-1.044-0.573-1.451
		c-0.381-0.407-0.851-0.61-1.409-0.61s-1.027,0.203-1.409,0.61c-0.381,0.408-0.573,0.891-0.573,1.451
		c0,0.362,0.086,0.701,0.257,1.015c0.178,0.323,0.419,0.573,0.725,0.748s0.639,0.262,1,0.262c0.773,0,1.345-0.332,1.716-0.997
		C22.882,43.644,22.97,43.301,22.97,42.933z"/>
	<path d="M31.154,42.859c0,0.575-0.055,1.031-0.164,1.368c-0.15,0.459-0.423,0.81-0.82,1.054c-0.331,0.203-0.745,0.305-1.242,0.305
		c-0.978,0-1.64-0.383-1.986-1.148c-0.166-0.36-0.249-0.902-0.249-1.626v-2.455h0.666v2.377c0,0.587,0.031,0.986,0.093,1.199
		c0.096,0.325,0.283,0.577,0.561,0.757c0.261,0.169,0.567,0.254,0.915,0.254c0.339,0,0.637-0.08,0.892-0.239
		c0.271-0.172,0.458-0.412,0.561-0.72c0.065-0.197,0.098-0.613,0.098-1.25v-2.377h0.675V42.859z"/>
	<path d="M36.859,40.399l-0.342,0.557c-0.137-0.059-0.252-0.089-0.346-0.089c-0.523,0-0.887,0.368-1.093,1.105
		c-0.081,0.29-0.121,0.876-0.121,1.76v1.722h-0.675v-5.097h0.675v0.749c0.396-0.587,0.837-0.88,1.322-0.88
		C36.46,40.226,36.654,40.283,36.859,40.399z"/>
	<path d="M49.773,42.891c0,0.743-0.249,1.376-0.749,1.897c-0.505,0.531-1.127,0.797-1.863,0.797c-0.808,0-1.489-0.336-2.041-1.008
		v2.741h-0.656v-6.962h0.656v0.937c0.518-0.713,1.192-1.068,2.022-1.068c0.733,0,1.355,0.26,1.866,0.781
		C49.518,41.53,49.773,42.157,49.773,42.891z M49.108,42.914c0-0.361-0.091-0.704-0.271-1.028c-0.181-0.323-0.426-0.575-0.737-0.754
		c-0.31-0.179-0.647-0.269-1.012-0.269c-0.579,0-1.06,0.199-1.442,0.598c-0.381,0.399-0.573,0.89-0.573,1.473
		c0,0.81,0.335,1.402,1.005,1.776c0.321,0.18,0.661,0.271,1.019,0.271c0.361,0,0.698-0.094,1.009-0.281
		c0.302-0.184,0.545-0.437,0.727-0.762C49.016,43.615,49.108,43.273,49.108,42.914z"/>
	<path d="M57.933,42.957h-4.578c0.013,0.57,0.19,1.046,0.533,1.426c0.362,0.399,0.823,0.598,1.385,0.598
		c0.543,0,1.003-0.165,1.381-0.495c0.172-0.149,0.357-0.39,0.557-0.723l0.552,0.291c-0.343,0.672-0.82,1.125-1.429,1.358
		c-0.297,0.116-0.632,0.174-1.007,0.174c-0.766,0-1.399-0.252-1.9-0.758c-0.502-0.506-0.752-1.142-0.752-1.907
		c0-0.647,0.198-1.223,0.595-1.729c0.503-0.644,1.176-0.965,2.019-0.965c0.868,0,1.562,0.329,2.08,0.988
		C57.739,41.683,57.927,42.263,57.933,42.957z M57.216,42.385c-0.162-0.643-0.51-1.089-1.045-1.337
		c-0.275-0.127-0.564-0.191-0.867-0.191c-0.5,0-0.93,0.161-1.289,0.48c-0.262,0.233-0.461,0.583-0.595,1.048H57.216z"/>
	<path d="M63.403,40.399l-0.342,0.557c-0.137-0.059-0.252-0.089-0.346-0.089c-0.523,0-0.887,0.368-1.093,1.105
		c-0.081,0.29-0.121,0.876-0.121,1.76v1.722h-0.675v-5.097h0.675v0.749c0.396-0.587,0.837-0.88,1.322-0.88
		C63.004,40.226,63.198,40.283,63.403,40.399z"/>
	<path d="M68.447,44.084c0,0.432-0.148,0.79-0.445,1.074c-0.297,0.285-0.662,0.427-1.097,0.427c-0.628,0-1.129-0.24-1.504-0.721
		l0.413-0.469c0.333,0.375,0.687,0.563,1.061,0.563c0.246,0,0.466-0.081,0.657-0.242c0.192-0.161,0.287-0.362,0.287-0.604
		c0-0.247-0.114-0.463-0.341-0.65c-0.113-0.093-0.334-0.224-0.664-0.392c-0.377-0.193-0.653-0.386-0.828-0.576
		c-0.237-0.257-0.355-0.563-0.355-0.919c0-0.397,0.134-0.72,0.401-0.972c0.267-0.251,0.599-0.377,0.996-0.377
		c0.469,0,0.94,0.23,1.415,0.689l-0.421,0.435c-0.349-0.337-0.691-0.506-1.024-0.506c-0.203,0-0.382,0.068-0.538,0.201
		c-0.156,0.133-0.234,0.299-0.234,0.498c0,0.336,0.324,0.671,0.973,1.007c0.399,0.207,0.689,0.403,0.869,0.591
		C68.321,43.403,68.447,43.718,68.447,44.084z"/>
	<path d="M76.589,42.92c0,0.75-0.255,1.381-0.763,1.895c-0.509,0.514-1.139,0.77-1.889,0.77s-1.38-0.256-1.89-0.768
		c-0.511-0.513-0.766-1.145-0.766-1.897c0-0.706,0.234-1.318,0.703-1.837c0.515-0.572,1.167-0.857,1.954-0.857
		c0.784,0,1.434,0.284,1.949,0.852C76.355,41.596,76.589,42.211,76.589,42.92z M75.919,42.933c0-0.561-0.191-1.044-0.573-1.451
		c-0.381-0.407-0.851-0.61-1.409-0.61s-1.027,0.203-1.409,0.61c-0.381,0.408-0.573,0.891-0.573,1.451
		c0,0.362,0.086,0.701,0.257,1.015c0.178,0.323,0.419,0.573,0.725,0.748s0.639,0.262,1,0.262c0.773,0,1.345-0.332,1.716-0.997
		C75.83,43.644,75.919,43.301,75.919,42.933z"/>
	<path d="M84.173,45.454h-0.656v-2.43c0-0.574-0.025-0.965-0.075-1.175c-0.162-0.676-0.589-1.015-1.28-1.015
		c-0.396,0-0.75,0.13-1.063,0.391c-0.313,0.26-0.519,0.586-0.619,0.975c-0.062,0.247-0.093,0.709-0.093,1.386v1.868h-0.661v-5.097
		h0.661v0.914c0.521-0.697,1.157-1.045,1.909-1.045c0.371,0,0.705,0.094,1.003,0.283c0.298,0.189,0.518,0.449,0.66,0.783
		c0.142,0.332,0.213,0.846,0.213,1.539V45.454z"/>
	<path d="M92.576,45.454h-0.651v-0.877c-0.552,0.672-1.234,1.008-2.045,1.008c-0.737,0-1.357-0.266-1.863-0.797
		c-0.499-0.521-0.749-1.154-0.749-1.897c0-0.734,0.255-1.362,0.766-1.884c0.51-0.521,1.132-0.781,1.865-0.781
		c0.84,0,1.515,0.355,2.027,1.068v-0.937h0.651V45.454z M91.967,42.934c0-0.584-0.191-1.074-0.572-1.473
		c-0.382-0.399-0.863-0.598-1.442-0.598c-0.779,0-1.361,0.341-1.744,1.023c-0.184,0.325-0.276,0.668-0.276,1.028
		c0,0.362,0.092,0.706,0.276,1.032c0.184,0.326,0.431,0.579,0.74,0.762c0.31,0.183,0.643,0.273,0.998,0.273
		c0.358,0,0.698-0.091,1.019-0.271c0.321-0.18,0.568-0.425,0.741-0.734C91.881,43.667,91.967,43.32,91.967,42.934z"/>
	<path d="M96.534,45.454h-0.661v-7.066h0.661V45.454z"/>
	<path d="M112.132,40.357l-2.211,5.097h-0.131l-1.614-3.65l-1.633,3.65h-0.126l-2.174-5.097h0.679l1.558,3.701l1.633-3.701h0.121
		l1.624,3.701l1.59-3.701H112.132z"/>
	<path d="M119.837,42.957h-4.578c0.013,0.57,0.19,1.046,0.533,1.426c0.362,0.399,0.823,0.598,1.385,0.598
		c0.543,0,1.003-0.165,1.381-0.495c0.172-0.149,0.357-0.39,0.557-0.723l0.552,0.291c-0.343,0.672-0.82,1.125-1.429,1.358
		c-0.297,0.116-0.632,0.174-1.007,0.174c-0.766,0-1.399-0.252-1.9-0.758c-0.502-0.506-0.752-1.142-0.752-1.907
		c0-0.647,0.198-1.223,0.595-1.729c0.503-0.644,1.176-0.965,2.019-0.965c0.868,0,1.562,0.329,2.08,0.988
		C119.644,41.683,119.831,42.263,119.837,42.957z M119.121,42.385c-0.162-0.643-0.51-1.089-1.045-1.337
		c-0.275-0.127-0.564-0.191-0.867-0.191c-0.5,0-0.93,0.161-1.289,0.48c-0.262,0.233-0.461,0.583-0.595,1.048H119.121z"/>
	<path d="M128.33,42.914c0,0.738-0.255,1.367-0.765,1.889c-0.51,0.521-1.132,0.783-1.865,0.783c-0.83,0-1.504-0.356-2.022-1.068
		v0.937h-0.656v-7.066h0.656v2.844c0.546-0.671,1.226-1.007,2.041-1.007c0.736,0,1.356,0.262,1.858,0.789
		C128.079,41.542,128.33,42.175,128.33,42.914z M127.665,42.896c0-0.362-0.092-0.706-0.276-1.033
		c-0.184-0.328-0.431-0.583-0.741-0.764c-0.31-0.183-0.641-0.274-0.993-0.274c-0.358,0-0.699,0.092-1.022,0.274
		c-0.322,0.181-0.57,0.427-0.743,0.736c-0.173,0.309-0.26,0.657-0.26,1.043c0,0.583,0.191,1.073,0.573,1.473
		c0.382,0.399,0.863,0.598,1.442,0.598c0.779,0,1.362-0.341,1.749-1.024C127.574,43.601,127.665,43.258,127.665,42.896z"/>
	<path d="M138.84,40.923H137.8v4.531h-0.666v-4.531h-0.895v-0.566h0.895v-1.893h0.666v1.893h1.039V40.923z"/>
	<path d="M146.747,42.957h-4.577c0.012,0.57,0.19,1.046,0.533,1.426c0.362,0.399,0.823,0.598,1.385,0.598
		c0.543,0,1.003-0.165,1.38-0.495c0.172-0.149,0.357-0.39,0.557-0.723l0.553,0.291c-0.344,0.672-0.821,1.125-1.43,1.358
		c-0.296,0.116-0.633,0.174-1.008,0.174c-0.765,0-1.398-0.252-1.899-0.758c-0.502-0.506-0.752-1.142-0.752-1.907
		c0-0.647,0.198-1.223,0.595-1.729c0.503-0.644,1.176-0.965,2.02-0.965c0.869,0,1.562,0.329,2.081,0.988
		C146.553,41.683,146.74,42.263,146.747,42.957z M146.03,42.385c-0.163-0.643-0.51-1.089-1.045-1.337
		c-0.274-0.127-0.564-0.191-0.867-0.191c-0.499,0-0.929,0.161-1.289,0.48c-0.262,0.233-0.461,0.583-0.595,1.048H146.03z"/>
	<path d="M154.967,45.454h-0.651v-0.877c-0.552,0.672-1.234,1.008-2.045,1.008c-0.737,0-1.358-0.266-1.863-0.797
		c-0.499-0.521-0.749-1.154-0.749-1.897c0-0.734,0.255-1.362,0.765-1.884c0.51-0.521,1.132-0.781,1.866-0.781
		c0.839,0,1.515,0.355,2.026,1.068v-0.937h0.651V45.454z M154.359,42.934c0-0.584-0.191-1.074-0.573-1.473
		c-0.383-0.399-0.862-0.598-1.443-0.598c-0.779,0-1.36,0.341-1.743,1.023c-0.184,0.325-0.275,0.668-0.275,1.028
		c0,0.362,0.092,0.706,0.275,1.032c0.184,0.326,0.431,0.579,0.741,0.762c0.31,0.183,0.643,0.273,0.998,0.273
		c0.358,0,0.698-0.091,1.019-0.271c0.321-0.18,0.568-0.425,0.741-0.734C154.272,43.667,154.359,43.32,154.359,42.934z"/>
	<path d="M165.996,45.454h-0.675v-2.78c0-0.427-0.019-0.726-0.056-0.894c-0.069-0.325-0.222-0.566-0.459-0.726
		c-0.191-0.125-0.417-0.187-0.68-0.187c-0.325,0-0.619,0.094-0.881,0.283s-0.454,0.438-0.574,0.749
		c-0.12,0.31-0.18,0.831-0.18,1.562v1.993h-0.656v-2.608c0-0.477-0.016-0.801-0.047-0.973c-0.066-0.368-0.222-0.638-0.469-0.81
		c-0.19-0.131-0.417-0.197-0.68-0.197c-0.315,0-0.605,0.095-0.871,0.285c-0.254,0.185-0.44,0.426-0.563,0.726
		c-0.128,0.309-0.191,0.781-0.191,1.419v2.157h-0.656v-5.097h0.656v0.881c0.475-0.675,1.058-1.012,1.75-1.012
		c0.522,0,0.938,0.176,1.247,0.529c0.141,0.163,0.263,0.393,0.366,0.693c0.447-0.814,1.074-1.222,1.882-1.222
		c0.748,0,1.26,0.337,1.539,1.012c0.131,0.318,0.198,0.796,0.198,1.433V45.454z"/>
</g>
<path stroke="#000000" stroke-width="1.4173" stroke-miterlimit="10" d="M22.213,9.491v2.679H7.918V9.491H22.213z M13.726,16.004
	h2.679v13.224h-2.679V16.004z"/>
<path stroke="#000000" stroke-width="1.4173" stroke-miterlimit="10" d="M40.736,18.034v11.194h-2.707v-8.571H25.595V9.491h2.679
	v8.543H40.736z M25.595,23.927h2.679v5.301h-2.679V23.927z M40.736,9.491v5.301h-2.707V9.491H40.736z"/>
<path stroke="#000000" stroke-width="1.4173" stroke-miterlimit="10" d="M58.046,12.169H45.104V9.491h12.942V12.169z M57.172,20.656
	H45.104v-2.622h12.068V20.656z M58.215,26.521v2.707H45.104v-2.707H58.215z"/>
<path stroke="#000000" stroke-width="1.4173" stroke-miterlimit="10" d="M79.472,26.746c-4.088,0-6.823-3.299-6.823-7.359
	c0-4.088,2.735-7.359,6.823-7.359c2.509,0,4.511,1.241,5.668,3.13l2.481-1.212c-1.664-2.791-4.596-4.624-8.149-4.624
	c-5.554,0-9.586,4.483-9.586,10.066c0,5.554,4.032,10.037,9.586,10.037c3.553,0,6.485-1.833,8.149-4.596l-2.481-1.24
	C83.983,25.506,81.981,26.746,79.472,26.746z"/>
<path stroke="#000000" stroke-width="1.4173" stroke-miterlimit="10" d="M128.662,19.373c0,5.752-4.004,9.868-10.347,9.868h-5.837
	v-9.53h2.679v6.823h3.129c4.624,0,7.613-2.763,7.613-7.162c0-4.399-2.876-7.19-7.585-7.19h-5.837V9.505h5.837
	C124.715,9.505,128.662,13.621,128.662,19.373z"/>
<path stroke="#000000" stroke-width="1.4173" stroke-miterlimit="10" d="M145.126,12.169h-12.942V9.491h12.942V12.169z
	 M144.252,20.656h-12.068v-2.622h12.068V20.656z M145.295,26.521v2.707h-13.111v-2.707H145.295z"/>
<path stroke="#000000" stroke-width="1.4173" stroke-miterlimit="10" d="M156.43,22.207h-4.652v7.021h-2.707v-9.699h7.387
	c2.368,0,3.694-1.748,3.694-3.665c0-1.946-1.326-3.694-3.694-3.694h-7.387V9.491h7.387c4.004,0,6.457,2.848,6.457,6.372
	c0,2.594-1.354,4.821-3.694,5.808l4.258,7.556h-3.073L156.43,22.207z"/>
<path stroke="#000000" stroke-width="1.7008" stroke-miterlimit="10" d="M105,11.628c1.321,1.321,2.138,3.145,2.138,5.161
	c0,2.015-0.817,3.84-2.138,5.161c-1.321,1.32-3.145,2.137-5.161,2.137S96,23.27,94.679,21.949c-1.321-1.321-2.138-3.145-2.138-5.161
	c0-2.016,0.817-3.84,2.138-5.161c1.321-1.32,3.145-2.137,5.161-2.137S103.679,10.307,105,11.628z M103.745,20.694
	c1.043-1.043,1.618-2.43,1.618-3.905c0-1.476-0.575-2.862-1.618-3.906c-1.043-1.043-2.43-1.618-3.905-1.618
	s-2.862,0.575-3.905,1.618c-1.043,1.043-1.618,2.43-1.618,3.906c0,1.475,0.574,2.862,1.618,3.905
	c1.043,1.043,2.43,1.618,3.905,1.618S102.702,21.737,103.745,20.694z"/>
<path stroke="#000000" stroke-width="1.4173" stroke-miterlimit="10" d="M106.631,29.876c0,0.187-0.163,0.338-0.365,0.338
	l-6.01-2.175l-6.01,2.175c-0.201,0-0.365-0.151-0.365-0.338v-3.845c0-0.187,0.163-0.338,0.365-0.338l6.01,2.345l6.01-2.345
	c0.201,0,0.365,0.151,0.365,0.338V29.876z"/>
</svg>
